<?xml version="1.0" encoding="UTF-8" standalone="no"?>
<!-- Created with Inkscape (http://www.inkscape.org/) -->

<svg
   version="1.1"
   id="svg1"
   width="640"
   height="640"
   viewBox="0 0 640 640"
   sodipodi:docname="sim0wn.svg"
   inkscape:version="1.3.2 (091e20ef0f, 2023-11-25)"
   inkscape:export-filename="sim0wn.png"
   inkscape:export-xdpi="150"
   inkscape:export-ydpi="150"
   xmlns:inkscape="http://www.inkscape.org/namespaces/inkscape"
   xmlns:sodipodi="http://sodipodi.sourceforge.net/DTD/sodipodi-0.dtd"
   xmlns="http://www.w3.org/2000/svg"
   xmlns:svg="http://www.w3.org/2000/svg">
  <defs
     id="defs1" />
  <sodipodi:namedview
     id="namedview1"
     pagecolor="#505050"
     bordercolor="#ffffff"
     borderopacity="1"
     inkscape:showpageshadow="0"
     inkscape:pageopacity="0"
     inkscape:pagecheckerboard="1"
     inkscape:deskcolor="#505050"
     showguides="false"
     inkscape:zoom="0.70710678"
     inkscape:cx="265.16504"
     inkscape:cy="381.13055"
     inkscape:window-width="1366"
     inkscape:window-height="699"
     inkscape:window-x="0"
     inkscape:window-y="0"
     inkscape:window-maximized="1"
     inkscape:current-layer="g1"
     inkscape:export-bgcolor="#ffffff00" />
  <g
     inkscape:groupmode="layer"
     inkscape:label="Image"
     id="g1">
    <path
       style="opacity:1;fill:#0f0621;fill-opacity:1;stroke:none;stroke-width:1;stroke-dasharray:none;stroke-opacity:1"
       d="M 0,320 V 0 H 320 640 V 320 640 H 320 0 Z"
       id="path1"
       inkscape:label="Background" />
    <path
       style="opacity:1;fill:none;stroke:none;stroke-opacity:1"
       d="m 320.0664,101.23828 c 12.4845,0.0363 37.048,9.5837 53.0527,20.89844 4.9603,3.50667 15.8571,14.23021 18.045,17.75781 2.003,3.22959 3.3569,6.59821 2.8535,7.10156 -0.2172,0.21719 -2.4887,-1.32681 -5.0469,-3.43164 -16.8215,-13.84034 -32.9319,-22.09161 -54.2793,-27.79687 -7.2045,-1.92545 -19.076,-2.07419 -26.5312,-0.33203 -21.1534,4.94303 -38.6337,13.4206 -55.3594,26.84375 -8.5781,6.88425 -8.9856,6.63231 -3.2168,-1.99219 6.3541,-9.4994 16.3089,-18.09763 29.2324,-25.24609 11.3552,-6.28095 29.1403,-12.5312 38.9199,-13.67969 0.7188,-0.0844 1.4978,-0.12547 2.3301,-0.12305 z"
       id="path188" />
    <path
       style="opacity:1;fill:none;stroke:none;stroke-opacity:1"
       d="m 320.0664,101.23828 c -0.8323,-0.002 -1.6113,0.0386 -2.3301,0.12305 -9.7796,1.14849 -27.5647,7.39874 -38.9199,13.67969 -12.9235,7.14847 -22.8783,15.74668 -29.2324,25.24609 -5.7688,8.62451 -5.3613,8.87645 3.2168,1.99219 16.7258,-13.42316 34.206,-21.90071 55.3594,-26.84375 7.4553,-1.74216 19.3267,-1.59342 26.5312,0.33203 21.3474,5.70527 37.4578,13.95651 54.2793,27.79687 2.5582,2.10483 4.8297,3.64883 5.0469,3.43164 0.5034,-0.50335 -0.8505,-3.87197 -2.8535,-7.10156 -2.1879,-3.5276 -13.0847,-14.25114 -18.045,-17.75781 -16.0048,-11.31475 -40.5682,-20.86215 -53.0527,-20.89844 z"
       id="path144" />
    <g
       id="g8"
       inkscape:label="Indigo"
       style="stroke:none"
       transform="translate(-0.5,-0.5)">
      <path
         style="fill:#4e226c;fill-opacity:1;stroke:none;stroke-opacity:1"
         d="m 126.7207,494.91211 c 0.79601,-3.14568 1.59584,-6.21384 2.99024,-10.61914 1.33703,-4.22407 2.8311,-8.43493 4.45898,-12.61328 l -1.52734,-2.51172 c -1.2951,-1.9932 -2.4305,-3.43595 -9.96289,-12.66797 -5.8017,-7.11085 -10.13946,-11.77304 -27.08985,-29.11914 -21.04708,-21.5385 -31.81742,-34.27307 -42.13281,-49.8125 -1.9463,-2.932 -3.69236,-5.0804 -3.88086,-4.77539 -0.8876,1.43617 6.0575,21.54357 11.33789,32.82617 7.02,14.99972 17.00695,28.23783 32.74024,43.39258 5.55519,5.35097 9.98098,9.72653 9.83398,9.72461 -0.1471,-0.002 -3.99945,-0.72152 -8.56055,-1.59961 -4.56109,-0.87808 -9.11614,-1.59766 -10.12304,-1.59766 H 82.97266 L 84.36914,457.5 c 2.5236,3.54406 11.54001,12.67259 19.0957,19.33398 4.083,3.59983 7.98117,7.04875 8.66407,7.66211 0.6828,0.61337 4.08163,3.20514 7.55273,5.75977 1.96526,1.44638 4.56555,3.06829 7.03906,4.65625 z"
         id="path129" />
      <path
         style="fill:#4e226c;fill-opacity:1;stroke:none;stroke-opacity:1"
         d="m 176.18359,186.99805 0.35938,-0.71485 -2.22852,-6.01172 c -1.2262,-3.30646 -2.93251,-7.88387 -3.79101,-10.17187 -0.8585,-2.288 -2.37133,-8.62408 -3.36133,-14.08008 -1.6438,-9.05908 -1.79758,-11.19615 -1.76758,-24.63867 0.0265,-11.96602 0.29196,-16.27761 1.41406,-23.04102 1.4345,-8.646382 2.67597,-14.488459 4.37891,-20.132809 -13.69223,8.583021 -32.34565,20.606399 -38.44336,25.140629 -7.30419,5.43136 -11.72691,9.03212 -19.2832,15.70117 -4.9983,4.41137 -19.56342,18.82329 -19.29492,19.09179 0.1326,0.13256 3.08886,-0.51022 6.56835,-1.42773 17.41509,-4.5922 30.04011,-4.6478 42.80469,-0.1875 6.932,2.42223 11.91138,5.65983 17.98438,11.69727 6.18029,6.14404 7.48465,8.11437 9.56054,14.4375 0.9822,2.99199 2.4565,6.88062 3.27539,8.64062 0.22313,0.47954 1.13759,3.52216 1.82422,5.69727 z"
         id="path123" />
      <path
         style="fill:#4e226c;fill-opacity:1;stroke:none;stroke-opacity:1"
         d="m 470.9063,89.232422 c 4.4879,16.218958 6.4803,36.021888 5.2714,52.537108 -0.9822,13.41824 -2.797,22.33235 -6.6738,32.79102 -1.7653,4.76224 -3.3532,9.5366 -3.5293,10.60937 -0.017,0.1034 0.051,0.31849 0.051,0.44141 l 3.3769,-9.35547 c 2.0437,-5.66352 4.0401,-10.69767 4.502,-11.16406 0.462,-0.46639 1.7194,-2.12504 2.793,-3.68555 1.0737,-1.56052 3.6584,-4.25646 5.7441,-5.99219 14.8459,-12.35489 34.1737,-15.23885 58.5391,-8.73242 3.168,0.84597 5.904,1.39382 6.08,1.2168 0.4314,-0.43391 -13.5835,-13.92334 -22.1425,-21.3125 -9.973,-8.60993 -36.1925,-26.19598 -54.0117,-37.353518 z"
         id="path125" />
      <path
         style="fill:#4e226c;fill-opacity:1;stroke:none;stroke-opacity:1"
         d="m 507.0625,470.92969 c 3.2412,8.15137 5.804,15.77053 7.6133,22.84179 15.7721,-12.37863 43.9043,-35.83843 43.9043,-37.64648 0,-0.32194 -0.6801,-0.58594 -1.5117,-0.58594 -1.4844,0 -16.1968,2.85561 -18.5879,3.60742 -0.6702,0.21073 3.5204,-4.33087 9.3105,-10.09179 11.403,-11.34532 19.5713,-20.77466 23.2695,-26.86133 9.1923,-15.12893 13.5314,-24.0006 16.9063,-34.56055 2.2226,-6.95461 3.973,-14.14624 3.5469,-14.57226 -0.3623,-0.36237 0.1094,-0.97243 -5.127,6.63867 -4.5276,6.58091 -14.1281,19.14508 -18.0957,23.68164 -1.2314,1.408 -8.7443,9.29798 -16.6953,17.53516 -17.1026,17.71806 -15.4045,15.93125 -23.4883,24.71289 -4.491,4.87876 -14.1045,16.55809 -21.0449,25.30078 z"
         id="path128" />
    </g>
    <g
       id="g7"
       inkscape:label="Gray"
       style="stroke:none"
       transform="translate(-0.5,-0.5)">
      <path
         style="fill:#3c3a4f;fill-opacity:1;stroke:none;stroke-opacity:1"
         d="m 401.7109,154.39844 c -3.0497,-4.69895 -5.9648,-9.15721 -9.2168,-13.94336 l -0.041,0.20312 -2.1953,-2.71875 c -14.7945,-18.31779 -42.8893,-33.44939 -67.8379,-36.53711 -8.9541,-1.10818 -34.674,7.95693 -49.27928,17.36914 -8.57658,5.52708 -16.03716,12.08521 -20.81054,18.29493 -2.03937,2.65298 -3.66569,4.57374 -3.92578,4.67187 -3.89025,5.31259 -6.28196,8.55462 -9.38282,12.71875 -0.31363,0.77524 -1.029,1.70137 -2.25976,3.0293 -0.32584,0.35156 -0.55954,0.62349 -0.97266,1.05664 -2.0342,2.13262 -3.85462,3.87695 -4.04492,3.87695 -0.1902,0 -0.1486,-1.05842 0.0937,-2.35156 0.4395,-2.34261 0.43567,-2.34739 -1.04883,-1.37891 -1.8378,1.19908 -10.74118,11.18816 -18.72656,21.00977 -12.70478,15.62648 -22.46275,32.02448 -30.30273,50.91992 -5.1367,12.38007 -10.4482,30.69072 -11.9629,41.24023 -1.85278,12.90301 -1.46088,17.58352 0.625,7.4629 4.7708,-23.14764 17.65928,-43.30846 42.72852,-66.83399 13.85778,-13.00451 34.61377,-26.6398 50.31055,-33.05078 25.70794,-10.49985 50.85121,-13.78781 78.16021,-10.22266 9.2598,1.20887 10.8372,1.58024 23.3594,5.49805 19.8799,6.21987 38.2864,16.62741 57.0449,32.25391 17.906,14.91633 33.5324,33.45957 41.2812,48.98828 3.2883,6.58986 6.546,16.56451 8.0157,24.54492 l 1.1777,6.40039 0.1953,-3.78516 c 0.1073,-2.08128 -0.2643,-6.97622 -0.8262,-10.8789 -1.3477,-9.36116 -3.4485,-17.98507 -6.9492,-28.53711 -6.3684,-19.19656 -19.0632,-43.07205 -31.4258,-59.10352 -8.5415,-11.0763 -22.1324,-26.01562 -23.6679,-26.01562 -0.3421,0 -0.2759,0.34518 0.1465,0.76758 0.8314,0.8314 1.0744,5.02164 0.2871,4.94726 -0.264,-0.0249 -2.2963,-2.25788 -4.5157,-4.96094 l -3.9628,-4.82617 c 0,0 0,0 0,0 l -0.072,-0.0879 z"
         id="path149" />
      <path
         style="fill:#3c3a4f;fill-opacity:1;stroke:none;stroke-opacity:1"
         d="m 418.8935,379.73309 c 10.8612,-6.21008 26.1596,-20.23906 35.2806,-32.35309 6.3817,-8.47579 12.1095,-19.4311 14.3885,-27.52 1.6431,-5.83216 2.8153,-16 1.8445,-16 -0.3195,0 -1.1949,2.2943 -1.9454,5.09844 -3.1762,11.86698 -9.0396,25.02825 -15.3339,34.41921 -6.9178,10.32119 -18.0806,22.00435 -29.5069,30.88235 -7.3111,5.68053 -8.8287,6.99744 -8.0809,7.01207 0.352,0.007 1.8611,-0.68566 3.3535,-1.53898 z"
         id="path23" />
      <path
         style="fill:#3c3a4f;fill-opacity:1;stroke:none;stroke-opacity:1"
         d="m 227.0329,381.5873 c -0.4532,-0.54599 -3.8393,-3.32049 -7.5247,-6.16555 -20.0263,-15.45969 -33.994,-33.18926 -41.6493,-52.8666 -2.8025,-7.20375 -5.8071,-17.12181 -5.8939,-19.45558 -0.047,-1.26535 -0.138,-1.20158 -0.6281,0.44043 -1.322,4.42912 1.7802,18.28123 6.1742,27.56937 8.1432,17.21336 26.1522,36.92901 43.4386,47.55513 3.5033,2.15352 6.4905,3.9155 6.6383,3.9155 0.1478,0 -0.102,-0.44672 -0.5551,-0.9927 z"
         id="path22" />
      <path
         style="fill:#3c3a4f;fill-opacity:1;stroke:none;stroke-opacity:1"
         d="m 355.5582,433.85693 c 3.7026,-1.86362 8.513,-3.92713 24.7818,-10.6306 18.6727,-7.69399 33.6829,-16.45106 41.5258,-24.22642 5.7042,-5.65509 12.2173,-13.43889 11.457,-13.69232 -0.6152,-0.20505 -3.576,1.52613 -16.1828,9.46176 -6.8278,4.29792 -20.101,11.66821 -36.8,20.4342 -9.7386,5.11217 -15.1634,8.66535 -24.1187,15.79748 -6.4078,5.10324 -6.5772,5.83266 -0.6631,2.8559 z"
         id="path19" />
      <path
         style="fill:#3c3a4f;fill-opacity:1;stroke:none;stroke-opacity:1"
         d="m 290.3923,435.34662 c -1.3558,-1.63365 -9.6309,-8.1219 -14.3991,-11.28995 -6.3513,-4.21985 -20.1542,-11.82365 -41.4332,-22.82488 -7.7663,-4.01518 -18.5401,-10.79411 -23.3563,-14.69587 -4.6098,-3.73464 -4.2332,-1.60416 0.9014,5.09849 7.2204,9.42553 24.2466,20.98635 41.8349,28.40594 4.752,2.00462 10.08,4.29516 11.84,5.09009 1.76,0.79493 5.504,2.36535 8.32,3.48981 2.816,1.12447 7.568,3.30013 10.56,4.83481 5.9539,3.05393 6.9772,3.3916 5.7323,1.89156 z"
         id="path18" />
      <path
         d="m 209.41797,415.28711 c -34.43391,33.93037 -53.07796,82.85953 -58.66016,99.27539 0.058,0.49021 0.10503,0.96551 0.20703,1.51758 0.36736,1.98702 3.93056,9.32916 7.94727,12.50976 0.15797,0.12509 0.31148,0.28694 0.4707,0.39844 3.2512,2.27666 -0.04,-13.68242 1.33203,-10.98828 1.53436,3.0131 9.35088,14.47523 23.39063,18.05469 3.0868,0.78698 6.46311,1.20705 10.15234,1.05664 16.14167,-1.15272 21.22787,0.74246 32.39844,-11.07813 2.0654,-2.19767 3.85968,-3.8903 3.98828,-3.76172 0.1286,0.12858 0.16548,1.10772 -0.19922,2.31641 -0.52089,1.89888 -0.43284,2.0854 -0.0547,1.55273 0,0 0,0 0,0 0.98161,-1.38266 4.10198,-8.04706 4.97071,-5.43164 -5.1663,9.34698 -3.79776,28.48626 1.33594,25.3711 0.5015,-0.30433 0.77435,-1.83696 0.96484,-4.0918 0,0 0,0 0,0 0.68395,-8.09602 0.24499,-26.05855 4.96875,-34.88281 0.5517,-1.03076 0.85643,-2.11115 0.67773,-2.40039 -0.5472,-0.88531 -23.30694,-0.57624 -25.90234,0.35156 -1.2614,0.45094 -4.34145,2.19226 -6.84375,3.87109 -1.6494,1.1066 -16.38864,9.43444 -5.82617,1.70118 3.79177,-2.77606 5.36805,-4.63 4.59375,-5.4043 -10.94937,-1.5415 -21.57201,-0.55514 -32.39258,0.30859 -6.22287,0.27326 23.38273,-6.51165 36.5625,-34.17968 1.9367,-4.06558 5.79976,-12.74175 5.85156,-15.16016 0.1981,-9.25318 3.26269,-0.18569 5.89649,9.10937 1.6269,5.74179 3.09055,11.56506 3.61132,13.22657 -0.61447,-4.87011 -1.08279,-31.10321 -1.02929,-27.51563 0.3274,21.97336 13.3969,37.39107 28.40234,33.8711 3.7284,-0.8746 7.57508,-2.89898 11.37695,-6.30469 l 8.11915,-3.40625 c -0.15722,-0.16768 -0.37017,-0.37933 -0.53711,-0.55469 -6.39138,-6.71336 -19.59961,-18.78516 -19.59961,-18.78516 l 2.07617,-0.92187 c 0.75748,-0.27732 5.01565,0.28553 2.01172,-0.89453 l -15.14453,-11.90235 -3.22266,-2.53125 -11.29492,-8.875 c -6.4007,-4.56733 -18.18611,-12.81376 -20.59961,-15.42187 z"
         style="fill:#3c3a4f;stroke:none;stroke-opacity:1"
         id="path249" />
      <path
         d="m 431.125,415.28711 c 34.4339,33.93037 53.078,82.85953 58.6602,99.27539 -0.058,0.49021 -0.105,0.96551 -0.207,1.51758 -0.3674,1.98702 -3.9306,9.32916 -7.9473,12.50976 -0.158,0.12509 -0.3115,0.28694 -0.4707,0.39844 -3.2512,2.27666 0.04,-13.68242 -1.332,-10.98828 -1.5344,3.0131 -9.3509,14.47523 -23.3907,18.05469 -3.0868,0.78698 -6.4631,1.20705 -10.1523,1.05664 -16.1417,-1.15272 -21.2279,0.74246 -32.3984,-11.07813 -2.0654,-2.19767 -3.8597,-3.8903 -3.9883,-3.76172 -0.1286,0.12858 -0.1655,1.10772 0.1992,2.31641 0.5209,1.89888 0.4328,2.0854 0.055,1.55273 0,0 0,0 0,0 -0.9816,-1.38266 -4.102,-8.04706 -4.9707,-5.43164 5.1663,9.34698 3.7977,28.48626 -1.336,25.3711 -0.5015,-0.30433 -0.7743,-1.83696 -0.9648,-4.0918 0,0 0,0 0,0 -0.6839,-8.09602 -0.245,-26.05855 -4.9687,-34.88281 -0.5517,-1.03076 -0.8565,-2.11115 -0.6778,-2.40039 0.5472,-0.88531 23.307,-0.57624 25.9024,0.35156 1.2614,0.45094 4.3414,2.19226 6.8437,3.87109 1.6494,1.1066 16.3887,9.43444 5.8262,1.70118 -3.7918,-2.77606 -5.3681,-4.63 -4.5938,-5.4043 10.9494,-1.5415 21.572,-0.55514 32.3926,0.30859 6.2229,0.27326 -23.3827,-6.51165 -36.5625,-34.17968 -1.9367,-4.06558 -5.7997,-12.74175 -5.8515,-15.16016 -0.1981,-9.25318 -3.2627,-0.18569 -5.8965,9.10937 -1.6269,5.74179 -3.0906,11.56506 -3.6114,13.22657 0.6145,-4.87011 1.0828,-31.10321 1.0293,-27.51563 -0.3274,21.97336 -13.3969,37.39107 -28.4023,33.8711 -3.7284,-0.8746 -7.5751,-2.89898 -11.377,-6.30469 l -8.1191,-3.40625 c 0.1572,-0.16768 0.3702,-0.37933 0.5371,-0.55469 6.3914,-6.71336 19.5996,-18.78516 19.5996,-18.78516 l -2.0762,-0.92187 c -0.7574,-0.27732 -5.0156,0.28553 -2.0117,-0.89453 l 15.1446,-11.90235 3.2226,-2.53125 11.2949,-8.875 c 6.4007,-4.56733 18.1861,-12.81376 20.5996,-15.42187 z"
         style="fill:#3c3a4f;stroke:none;stroke-opacity:1"
         id="path258" />
    </g>
    <g
       id="g6"
       inkscape:label="Purple"
       style="stroke:none"
       transform="translate(-0.5,-0.5)">
      <path
         d="m 333.334,289.74414 c -0.476,-0.20672 -0.9336,-0.43148 -1.3711,-0.71094 -6.5885,-4.20865 -6.7671,-7.93164 -11.1094,-7.93164 -2.4867,0 -5.8335,3.18455 -9.1289,5.71875 -1.0086,0.77561 -2.2974,1.63256 -3.664,2.48828 -1.0418,2.36562 -2.171,4.83532 -3.2774,7.08203 -4.6328,9.40774 -6.0479,13.82579 -5.1641,16.12891 0.3297,0.85925 0.6898,0.6958 2.0625,-0.93555 2.0935,-2.48795 9.6097,-6.11249 14.7227,-7.09961 8.0278,-1.54981 17.2207,1.18438 22.6563,6.73829 l 2.8789,2.94336 0.1933,-3.19922 c 0.1348,-2.24295 -0.2398,-4.20504 -1.2539,-6.5625 -0.7956,-1.84946 -3.1456,-6.40023 -5.2207,-10.11328 -0.7437,-1.33076 -1.5487,-2.91581 -2.3242,-4.54688 z"
         style="opacity:1;fill:#762762;fill-opacity:1;stroke:none;stroke-opacity:1"
         id="path239" />
      <path
         style="opacity:1;fill:#762762;fill-opacity:1;stroke:none;stroke-opacity:1"
         d="m 318.9,324.34 c 0.5422,-0.87729 3.7361,-0.80793 4.6449,0.10088 0.5611,0.56116 1.0013,0.52235 1.8148,-0.16 0.5906,-0.49549 2.6908,-1.76488 4.6671,-2.82088 3.0265,-1.61719 3.6234,-2.22818 3.7844,-3.87408 0.4688,-4.79258 -5.3087,-7.66008 -14.5019,-7.19752 -6.0317,0.30349 -8.9985,1.4223 -10.7138,4.04026 -1.6802,2.56422 -0.7245,4.5157 3.3327,6.80543 1.9596,1.10595 3.7127,2.40121 3.8958,2.87836 0.387,1.00855 2.4969,1.16462 3.076,0.22755 z"
         id="path26" />
      <path
         style="fill:#762762;fill-opacity:1;stroke:none;stroke-opacity:1"
         d="m 512.7891,156.03906 c -9.9653,0.16468 -18.6104,3.57059 -25.1133,10.00781 -5.9991,5.93855 -9.7364,15.05078 -9.7364,23.74415 0,4.28812 1.1117,12.71542 1.8555,14.07226 0.2929,0.53442 1.7652,-0.6773 4.4043,-3.625 7.8617,-8.78087 16.2521,-12.72172 28.3008,-13.29101 5.8292,-0.27543 7.4171,-0.11167 11.9746,1.23437 11.8533,3.50087 24.8365,14.37879 34.3047,28.74219 2.7062,4.10531 4.9199,7.63983 4.9199,7.85351 0,0.21368 0.6671,1.46239 1.4805,2.77539 0.6827,1.1021 1.3385,2.44992 1.9707,3.97266 5.3124,3.72468 11.5473,8.58939 19.7637,8.55859 -0.9677,-20.92874 -10.1929,-41.60507 -27.0567,-59.93164 -10.3495,-11.24716 -26.0998,-21.2001 -36.6933,-23.18945 -3.5849,-0.67319 -7.0533,-0.97872 -10.375,-0.92383 z"
         id="path171" />
      <path
         style="fill:#762762;fill-opacity:1;stroke:none;stroke-opacity:1"
         d="m 129.01172,156.16797 c -1.32272,-0.0297 -2.66745,0.003 -4.03125,0.0996 -14.85969,1.05791 -26.35157,7.21645 -41.31445,22.14062 -14.76519,14.72694 -23.18666,29.60106 -27.90625,49.29102 -0.57266,2.38895 -0.85538,5.8016 -0.94336,11.26172 1.47147,0.63837 3.246,0.83322 5.40039,0.40234 6.33283,-1.26657 11.38521,-6.65008 16.49804,-12.74609 3.95173,-7.67806 9.45669,-15.42701 15.92969,-22.1836 8.19489,-8.55377 15.67936,-13.45691 24.65625,-16.15234 5.4355,-1.63207 17.86136,-1.64105 22.71875,-0.0156 7.06849,2.3654 12.24157,6.00806 17.94336,12.63282 2.0684,2.40329 3.91446,4.12292 4.10156,3.82031 0.6565,-1.06227 1.61055,-9.38788 1.62305,-14.16406 0.0516,-19.53205 -14.83497,-33.94174 -34.67578,-34.38672 z"
         id="path152" />
      <path
         d="m 343.5566,193.7793 c -0.2796,0 -0.7118,1.63281 -0.9609,3.62695 -0.6221,4.97939 -2.7128,12.73074 -4.1816,15.50977 l -1.2168,2.30468 -0.027,-2.8164 c -0.018,-1.82163 -0.4628,-4.82751 -1.0684,-7.8125 -15.88936,-2.72903 -26.62819,-0.6537 -31.03319,0.58203 -0.6841,3.13746 -1.2369,6.18093 -1.35938,7.80664 -0.1654,2.19513 -0.19757,2.16347 -1.60937,-1.59961 -0.7924,-2.112 -2.08731,-6.79153 -2.87891,-10.39844 -0.7916,-3.60685 -1.63434,-6.55945 -1.87304,-6.56055 -1.2822,-0.006 -1.41113,18.24078 -0.17383,24.63868 0.3589,1.85621 0.33582,1.87614 -0.67188,0.63867 -0.5732,-0.704 -2.33587,-3.44646 -3.91797,-6.0957 -6.63745,-11.11463 -13.66532,-18.91143 -9.39062,-10.41797 1.83775,3.65139 2.46888,5.11669 1.66406,5.31836 0.94112,2.30314 1.96681,5.00098 3.05078,8.0332 -8.94442,-6.69341 -22.36219,-3.07044 -27.06836,-1.49219 0.0858,0.33969 0.19488,0.71126 0.23633,0.98828 0.0855,0.57161 0.0795,0.99869 -0.0996,1.10938 -0.89578,0.55361 -3.51352,-0.2982 -3.7832,-1.15821 -9.67085,0.0153 -17.91888,0.99131 -23.8418,1.9375 -4.38968,2.6628 -7.57031,4.86577 -7.57031,5.26368 0,0.2646 2.80828,0.65656 6.24023,0.87109 6.9357,0.43355 22.05093,3.35541 29.91993,5.7832 9.33755,2.88096 20.13243,7.90777 27.92578,13.00391 2.3353,1.52711 4.42392,2.77539 4.64062,2.77539 0.7734,0 0.35713,-1.4675 -2.32617,-8.20703 -1.496,-3.75747 -2.82989,-7.12066 -2.96289,-7.47266 -0.5153,-1.36391 8.12321,11.70227 9.82031,14.85352 2.7958,5.19124 3.45431,5.65148 9.72266,6.81836 8.58325,1.59779 14.44942,1.68844 22.29882,0.34375 8.8233,-1.51153 8.2669,-1.1039 12.9863,-9.53516 1.9604,-3.50207 7.7454,-12.16015 8.125,-12.16015 0.1506,0 -0.5274,1.8 -1.5078,4 -2.5825,5.79482 -4.2272,10.63024 -3.7695,11.08789 0.2187,0.21871 1.9307,-0.60657 3.8027,-1.83594 5.217,-3.42622 14.9611,-8.3211 21.002,-10.54883 12.2299,-4.51007 28.4904,-8.20318 38.0469,-8.64062 3.1496,-0.14418 5.8261,-0.55873 5.9472,-0.92188 0.2337,-0.70111 -4.7048,-4.1559 -8.539,-6.04687 -4.1447,-0.58363 -12.4693,-1.38099 -23.7969,-0.83985 -1.0292,0.92357 -1.8567,1.58594 -2.0938,1.58594 -0.38,0 -0.5091,-0.58119 -0.457,-1.46094 0,0 0,0 0,0 0.05,-0.83836 0.2634,-1.94697 0.6055,-3.11719 -10.9909,-4.14576 -22.8693,0.73564 -29.4707,4.33008 1.3847,-2.83688 3.0489,-6.17572 4.8164,-9.28515 -0.2619,-0.002 -0.4181,-0.082 -0.418,-0.27539 3e-4,-0.41302 0.8662,-2.577 1.9219,-4.8086 2.1334,-4.50963 2.1532,-4.58203 1.3457,-4.58203 -0.9347,0 -7.3422,8.76498 -11.9317,16.32031 -2.3521,3.872 -4.0973,6.31946 -3.8789,5.43946 0.2184,-0.88 0.7255,-5.19966 1.1289,-9.59961 0.5716,-6.2349 0.5589,-9.02439 -0.062,-12.64063 -0.4388,-2.552 -1.0269,-4.64062 -1.3066,-4.64062 z"
         style="fill:#762762;fill-opacity:1;stroke:none;stroke-opacity:1"
         id="path236" />
      <path
         style="fill:#762762;fill-opacity:1;stroke:none;stroke-opacity:1"
         d="m 439.2129,86.904297 c -0.3562,-0.0024 -4.1387,2.118074 -8.4063,4.710937 -11.0794,6.731719 -19.6408,13.815016 -25.1972,20.849606 -3.5915,4.54705 -8.6067,13.35691 -9.3106,16.35547 -0.2478,1.056 -0.8542,2.38537 -1.3476,2.95508 -0.4934,0.56971 -1.2572,2.80133 -1.6973,4.95898 l -0.7598,3.72071 c 3.252,4.78614 6.1671,9.24441 9.2168,13.94336 l 0.418,-3.49805 c 0.5626,-4.72307 1.7102,-8.05537 5.4355,-15.77539 5.1593,-10.69164 12.2085,-18.92111 20.4942,-23.92773 2.7541,-1.66419 5.3161,-2.76641 5.6953,-2.62696 6.2207,-2.00515 8.571,8.88672 8.125,20.125 -0.3617,9.11413 1.7297,16.53786 4.1563,21.98242 2.8396,-14.41642 1.559,-46.71234 -2.6368,-57.697261 -0.9887,-2.588619 -3.3868,-6.070778 -4.1855,-6.076172 z"
         id="path169" />
      <path
         style="fill:#762762;fill-opacity:1;stroke:none;stroke-opacity:1"
         d="m 201.73633,87.148437 c -1.6663,0.639417 -4.17332,6.152493 -5.44922,11.982422 -1.4137,6.459091 -2.47204,19.601891 -2.49414,30.988281 -0.01,5.10269 0.72139,13.72424 1.5,19.28906 2.78455,-5.32439 5.66193,-12.96521 5.7793,-22.00195 0.15149,-11.6652 1.20756,-23.41779 8.375,-17.45703 0.0794,-0.002 0.12047,-0.01 0.21679,-0.01 1.9242,0 8.53479,4.33783 12.49219,8.19727 9.03037,8.80706 16.4755,23.49702 17.1543,33.8457 0.0693,1.05685 0.004,1.75075 -0.28907,2.47461 3.10086,-4.16412 5.49257,-7.40616 9.38282,-12.71875 -0.0539,0.0203 -0.0707,-0.009 0.004,-0.1582 0.5607,-1.12402 -1.54458,-9.22524 -3.76758,-14.4961 -4.83377,-11.46144 -11.12688,-19.12011 -23.66015,-28.792964 -5.1255,-3.955722 -18.21814,-11.536277 -19.24414,-11.142579 z"
         id="path166" />
      <path
         style="fill:#762762;fill-opacity:1;stroke:none;stroke-opacity:1"
         d="m 49.71094,275.42383 c -0.7836,0.48431 -0.72024,25.26398 0.0801,31.42969 2.56248,19.73487 8.22564,38.50428 15.80664,52.38281 3.22848,5.91036 9.64413,16.37525 10.38672,16.94336 0.23,0.176 1.1033,1.32856 1.9414,2.56054 4.0702,5.98357 11.80325,14.48177 26.20313,28.79883 2.24851,2.23557 4.25977,4.2782 6.21875,6.2793 9.97899,4.88691 21.53683,8.19932 32.58789,5.93945 -0.48795,-0.9211 -1.38291,-2.80182 -1.99219,-4.1914 -1.8529,-4.22652 -8.12361,-13.3416 -11.74609,-17.07422 C 117.33441,386.26856 103.10876,371.25191 98.66018,366.25977 80.11291,345.44599 66.4873,323.61993 57.709,300.66016 c -2.77428,-7.25645 -6.1757,-18.52241 -7.0039,-23.19532 -0.2334,-1.3169 -0.68074,-2.2347 -0.99414,-2.04101 z"
         id="path157" />
      <path
         style="fill:#762762;fill-opacity:1;stroke:none;stroke-opacity:1"
         d="m 103.94727,223.5625 c -1.41421,0.69122 -2.64696,1.32406 -3.15235,1.67578 -12.60786,8.77417 -22.77474,25.50767 -26.71094,43.96289 -1.22178,5.72848 -1.37345,8.0131 -1.12695,16.95899 0.2522,9.15236 0.48542,10.92419 2.0332,15.43164 4.2138,12.2709 13.71388,29.06276 23.36915,41.30859 2.63659,3.344 4.95333,6.22439 5.14843,6.40039 0.1951,0.176 1.33169,1.47091 2.52539,2.87891 2.735,3.22596 10.11583,11.06127 20.5,21.75976 11.3789,11.72335 15.89116,16.85296 22.73828,25.91992 4.2612,-1.50218 10.16276,-4.71296 13.88868,-11.54687 -0.0134,-0.0331 -0.0996,-0.15125 -0.0996,-0.16797 0,-0.84366 -7.77701,-11.72621 -20.42188,-28.58008 -8.47097,-11.29058 -9.18099,-12.27578 -17.17969,-23.82812 -13.29584,-19.2029 -21.56352,-35.92322 -24.46679,-49.47656 -0.158,-0.73753 -0.2947,-1.54819 -0.42578,-2.37305 -3.79477,-10.7623 -4.05488,-27.42056 -2.76368,-36.45899 0.81763,-5.72339 3.52682,-15.32829 6.14454,-23.86523 z"
         id="path162" />
      <path
         style="fill:#762762;fill-opacity:1;stroke:none;stroke-opacity:1"
         d="m 536.3106,222.93945 c 5.2116,15.97514 10.9061,39.51571 5.1972,53.91016 -1.0411,13.2369 -5.8314,26.19575 -15.3125,42.91406 -2.5897,4.5666 -12.8124,20.18186 -14.5176,22.17578 -1.3095,1.53142 -21.3644,28.58003 -24.2011,32.64063 -3.5833,5.12926 -6.6098,9.69559 -9.25,13.77344 3.1803,4.51487 7.9932,10.27452 13.1132,12.36328 5.6054,-7.67197 13.8684,-16.89394 28.0411,-31.37305 17.7042,-18.08714 28.7147,-31.80545 36.6347,-45.64453 5.9987,-10.48209 9.6565,-18.68618 11.3418,-25.44531 1.3068,-5.24049 1.4563,-21.50877 0.252,-27.35352 -2.0966,-10.17577 -7.0062,-22.06198 -12.5703,-30.43164 -3.1771,-4.77903 -10.5607,-12.48035 -14.6856,-15.31836 -0.9717,-0.66857 -2.4726,-1.45067 -4.0429,-2.21094 z"
         id="path177" />
      <path
         style="fill:#762762;fill-opacity:1;stroke:none;stroke-opacity:1"
         d="m 591.4082,275.60547 c -0.3547,-0.0278 -0.8805,1.56344 -1.5234,4.6289 -2.0503,9.77658 -6.7345,22.61642 -12.6465,34.66797 -6.7061,13.67035 -12.3146,22.76502 -22.2031,35.99805 -7.7254,10.33806 -10.9092,13.9458 -28.7891,32.63867 -15.26,15.95381 -17.4839,18.48075 -21.4258,24.32227 -1.711,2.53566 -4.0266,6.90576 -6.414,11.80078 4.7128,4.8129 11.1005,4.46818 30.4687,-3.97852 3.1485,-3.1107 6.5902,-6.40255 10.5352,-10.06445 19.7866,-18.36729 35.1907,-40.04331 43.1953,-60.78125 4.3334,-11.22671 7.8925,-26.61354 9.2734,-40.09961 0.8331,-8.13571 0.6124,-27.4965 -0.3301,-29.02148 -0.044,-0.0705 -0.09,-0.10736 -0.1406,-0.11133 z"
         id="path180" />
      <path
         style="fill:#762762;fill-opacity:1;stroke:none;stroke-opacity:1"
         d="m 293.4141,486.30273 c -5.0062,-0.0524 -7.9893,0.68061 -14.7735,3.29688 -5.4863,2.11574 -10.0812,5.75571 -12.664,10.0332 -1.4278,2.36456 -2.9247,4.345 -6.4493,8.5293 -0.4978,0.59108 -1.012,1.30488 -1.5273,2.06641 -2.8025,9.56634 -5.111,21.63426 -1.7598,28.68945 6.1664,12.98174 10.711,13.79297 10.711,13.79297 0,0 14.1159,2.59552 21.2558,-3.08399 0.6252,-0.49726 1.1585,-0.9464 1.7032,-1.40234 0.031,-0.22292 0.3445,-0.47969 0.9414,-0.78125 4.985,-4.24007 7.026,-6.33151 14.7187,-4.79297 4.8873,0.97746 4.3657,-3.10553 2.9004,-7 -2.5611,-3.10327 -6.8422,-4.75584 -13.25,-5.18555 l -5.7598,-0.38672 3.1993,-2.1289 3.1992,-2.12891 0.2929,0.0137 c 2.5138,-2.39091 7.1476,-4.88052 14.8711,-2.85156 1.3448,-4.47124 -0.083,-8.9183 -3.7304,-11.18555 -2.1055,-1.30884 -3.2815,-1.5371 -7.9121,-1.5371 -2.992,0 -6.4497,0.2424 -7.6817,0.53906 l -2.2383,0.53906 3.0586,-2.97852 c 0.073,-0.0708 0.1373,-0.12452 0.209,-0.19335 -0.625,-0.0114 -1.1911,-0.0156 -1.9277,-0.041 -9.9827,-0.34423 10.7867,-8.26224 17.0976,-9.75391 1.0159,-0.24011 1.7946,-0.57824 2.42,-0.96679 0.045,-2.29334 -0.2462,-4.61651 -0.8711,-5.57032 -0.5201,-0.79379 -2.4945,-2.28713 -4.3867,-3.32031 -2.9343,-1.60199 -4.3118,-1.91796 -9.3594,-2.14258 -0.8147,-0.0362 -1.572,-0.0609 -2.2871,-0.0684 z"
         id="path201" />
      <path
         style="fill:#762762;fill-opacity:1;stroke:none;stroke-opacity:1"
         d="m 348.8882,486.30273 c 5.0062,-0.0524 7.9892,0.68061 14.7735,3.29688 5.4862,2.11574 10.0812,5.75571 12.664,10.0332 1.4278,2.36456 2.9246,4.345 6.4492,8.5293 0.4979,0.59108 1.012,1.30488 1.5274,2.06641 2.8024,9.56634 5.111,21.63426 1.7597,28.68945 -6.1663,12.98174 -10.7109,13.79297 -10.7109,13.79297 0,0 -14.1159,2.59552 -21.2559,-3.08399 -0.6251,-0.49726 -1.1585,-0.9464 -1.7031,-1.40234 -0.031,-0.22292 -0.3445,-0.47969 -0.9414,-0.78125 -4.985,-4.24007 -7.0261,-6.33151 -14.7187,-4.79297 -4.8873,0.97746 -4.3657,-3.10553 -2.9004,-7 2.561,-3.10327 6.8422,-4.75584 13.25,-5.18555 l 5.7597,-0.38672 -3.1992,-2.1289 -3.1992,-2.12891 -0.293,0.0137 c -2.5137,-2.39091 -7.1476,-4.88052 -14.8711,-2.85156 -1.3447,-4.47124 0.083,-8.9183 3.7305,-11.18555 2.1055,-1.30884 3.2814,-1.5371 7.9121,-1.5371 2.992,0 6.4497,0.2424 7.6817,0.53906 l 2.2382,0.53906 -3.0586,-2.97852 c -0.073,-0.0708 -0.1373,-0.12452 -0.2089,-0.19335 0.6249,-0.0114 1.1911,-0.0156 1.9277,-0.041 9.9827,-0.34423 -10.7868,-8.26224 -17.0977,-9.75391 -1.0158,-0.24011 -1.7946,-0.57824 -2.4199,-0.96679 -0.045,-2.29334 0.2461,-4.61651 0.8711,-5.57032 0.5201,-0.79379 2.4944,-2.28713 4.3867,-3.32031 2.9342,-1.60199 4.3118,-1.91796 9.3594,-2.14258 0.8147,-0.0362 1.5719,-0.0609 2.2871,-0.0684 z"
         id="path207" />
    </g>
    <g
       id="g5"
       inkscape:label="White Shadow"
       style="stroke:none"
       transform="translate(-0.5,-0.5)">
      <path
         style="fill:#9e9fba;fill-opacity:1;stroke:none;stroke-opacity:1"
         d="m 412.4803,240.04297 c 4.4853,-0.0614 9.0603,2.1e-4 10.916,0.25586 l 3.7793,0.52148 1.2305,3.51953 c 2.5464,7.28735 3.5601,17.48666 2.7324,25.98633 -3.3488,7.99056 -8.223,16.74208 -15.4062,21.98828 -12.4012,9.05704 -22.2762,11.45808 -26.6406,10.4336 14.3276,-1.48983 29.0853,-15.04908 32.9824,-31.74024 2.2423,-9.60383 -3.5431,-21.62919 -9.5938,-30.96484 z"
         id="path186" />
      <path
         style="fill:#9e9fba;fill-opacity:1;stroke:none;stroke-opacity:1"
         d="m 372.076,291.94336 c -0.5733,1.49787 -1.4382,3.17634 -2.7793,4.5 -2.157,2.12898 -8.7427,-2.2598 -12.9336,-6.22266 0.7537,0.3331 0.6584,-0.2417 -0.1367,-1.77929 -2.4214,-4.68245 0.6996,-4.95833 7.3535,-0.65039 3.5574,2.30314 5.8131,3.50941 8.4961,4.15234 z"
         id="path141" />
      <path
         style="fill:#9e9fba;fill-opacity:1;stroke:none;stroke-opacity:1"
         d="m 443.64,286.29102 c 0.7487,0.18129 0.9747,4.12254 0.9414,12.64453 -0.044,11.32833 -0.1006,11.81255 -2.0957,17.84179 -4.3404,13.1167 -9.1537,21.01065 -18.6582,30.59961 -12.0699,12.17715 -25.3142,19.23982 -44.9629,23.98047 -9.5391,2.3015 -19.4539,2.52001 -27.8887,0.61328 -2.2278,-0.5036 -6.2378,-1.82615 -8.9121,-2.93945 -6.0973,-2.5383 -12.7174,-8.69531 -15.2148,-14.15039 -0.838,-1.83026 -1.2355,-2.97203 -1.3985,-4.70117 24.0721,19.12521 47.4545,8.93654 72.2441,-4.36524 13.5663,-7.27946 22.9797,-22.22028 28.9688,-35.13281 6.5519,-6.0331 12.6101,-14.25807 15.0078,-20.83398 0.8825,-2.42024 1.5195,-3.66542 1.9688,-3.55664 z"
         id="path187" />
      <path
         style="fill:#9e9fba;fill-opacity:1;stroke:none;stroke-opacity:1"
         d="m 346.9805,378.05859 c -21.4864,11.86948 -42.56414,5.61871 -54.01566,0.28711 -3.08141,0.63257 -6.09149,1.09972 -8.30468,1.21875 -1.9535,0.10506 -3.39203,0.46261 -3.23243,0.80274 0.5408,1.15299 8.74881,6.55537 13.875,9.13281 5.7802,2.90619 10.40501,4.38259 17.4668,5.57227 6.27899,1.0578 7.05552,1.074 13.50777,0.28515 7.139,-0.87282 13.8432,-2.72693 18.7344,-5.18164 5.1214,-2.57027 14.9838,-8.96174 15.4258,-9.99609 0.253,-0.59222 -0.7211,-0.79883 -3.75,-0.79883 -2.5164,0 -6.0956,-0.52184 -9.707,-1.32227 z"
         id="path184" />
      <path
         style="fill:#9e9fba;fill-opacity:1;stroke:none;stroke-opacity:1"
         d="m 198.28711,286.29102 c -0.7487,0.18129 -0.97478,4.12254 -0.94141,12.64453 0.044,11.32833 0.10061,11.81255 2.09571,17.84179 4.34039,13.1167 9.15361,21.01065 18.6582,30.59961 12.06989,12.17715 25.31411,19.23982 44.96289,23.98047 9.53909,2.3015 19.45388,2.52001 27.88867,0.61328 2.2278,-0.5036 6.23781,-1.82615 8.91211,-2.93945 6.09732,-2.5383 12.71742,-8.69531 15.21482,-14.15039 0.838,-1.83026 1.2355,-2.97203 1.3985,-4.70117 -24.07218,19.12521 -47.4545,8.93654 -72.24418,-4.36524 -13.56626,-7.27946 -22.97967,-22.22028 -28.96875,-35.13281 -6.55193,-6.0331 -12.61014,-14.25807 -15.00781,-20.83398 -0.88245,-2.42024 -1.51953,-3.66542 -1.96875,-3.55664 z"
         id="path212" />
      <path
         style="fill:#9e9fba;fill-opacity:1;stroke:none;stroke-opacity:1"
         d="m 228.75586,240.04297 c -4.48524,-0.0614 -9.06025,2.1e-4 -10.91602,0.25586 l -3.77929,0.52148 -1.23047,3.51953 c -2.54639,7.28735 -3.56005,17.48666 -2.73242,25.98633 3.34887,7.99056 8.22298,16.74208 15.40625,21.98828 12.40118,9.05704 22.27621,11.45808 26.64062,10.4336 -6.22325,-0.64711 -12.52763,-3.57126 -17.98793,-8.04006 -7.11082,-5.81962 -12.79013,-14.25886 -14.99449,-23.70018 -2.2423,-9.60383 3.54312,-21.62919 9.59375,-30.96484 z"
         id="path214" />
      <path
         style="fill:#9e9fba;fill-opacity:1;stroke:none;stroke-opacity:1"
         d="m 269.16016,291.94336 c 0.5733,1.49787 1.43822,3.17634 2.77929,4.5 2.15701,2.12898 8.74274,-2.2598 12.9336,-6.22266 -0.75365,0.3331 -0.6584,-0.2417 0.13672,-1.77929 2.42138,-4.68245 -0.69954,-4.95833 -7.35352,-0.65039 -3.55739,2.30314 -5.81308,3.50941 -8.49609,4.15234 z"
         id="path140" />
    </g>
    <g
       id="g4"
       inkscape:label="Purple Shadow"
       style="stroke:none"
       transform="translate(-0.5,-0.5)">
      <path
         d="m 383.3574,216.51367 c 11.3276,-0.54114 19.6522,0.25622 23.7969,0.83985 -0.197,-0.0972 -0.4172,-0.2342 -0.6074,-0.32227 -1.3903,-0.64379 -2.6756,-1.36757 -2.8575,-1.60742 -0.7842,-1.03424 -10.657,-5.64453 -12.0878,-5.64453 -1.0989,0 -2.7759,1.25361 -5.5703,4.16015 -0.9639,1.00259 -1.8712,1.85386 -2.6739,2.57422 z"
         style="fill:#3f123f;fill-opacity:1;stroke:none;stroke-opacity:1"
         id="path235" />
      <path
         d="m 356.7578,208.56641 c -1.7675,3.10944 -3.4316,6.44826 -4.8164,9.28515 6.6015,-3.59445 18.4799,-8.47585 29.4707,-4.33008 0.3193,-1.09239 0.7114,-2.20899 1.2285,-3.22265 0.7192,-1.40981 1.2132,-2.65989 1.0957,-2.77735 -0.2396,-0.23961 -6.2567,-0.8369 -9.0664,-0.90039 -1.6343,-0.0369 -1.7852,-0.21424 -1.4199,-1.66992 0.2249,-0.89619 0.2457,-1.89444 0.047,-2.2168 -0.3257,-0.52698 -8.7375,2.20147 -11.6348,3.77344 -2.5418,1.3791 -4.1903,2.06373 -4.9043,2.0586 z"
         style="fill:#3f123f;fill-opacity:1;stroke:none;stroke-opacity:1"
         id="path232" />
      <path
         d="m 319.62109,193.00586 c -3.99185,0.0483 -7.86694,0.26187 -9.33789,0.61133 -1.99067,0.47293 -2.32701,0.88235 -3.30468,4.02343 -0.61879,1.98795 -1.31354,4.7969 -1.91016,7.53321 4.40502,-1.23573 15.14379,-3.31106 31.03324,-0.58203 -0.6441,-3.17511 -1.4718,-6.32772 -2.2071,-8.04297 -1.0598,-2.47258 -1.3853,-2.71629 -4.2304,-3.16797 -1.9411,-0.30815 -6.0511,-0.42333 -10.04301,-0.375 z"
         style="fill:#3f123f;fill-opacity:1;stroke:none;stroke-opacity:1"
         id="path228" />
      <path
         d="m 284.85742,208.50391 c -0.46866,0.11743 -1.4178,-0.18888 -2.91601,-0.75391 -1.848,-0.69695 -3.63435,-1.53414 -3.96875,-1.85938 -0.3344,-0.32522 -1.12617,-0.58984 -1.75977,-0.58984 -0.6336,0 -1.15234,-0.21808 -1.15234,-0.48437 0,-0.48066 -4.4576,-2.07618 -5.80078,-2.07618 -0.4402,0 -0.54847,0.68987 -0.29297,1.85352 l 0.40625,1.85156 -5.42383,0.22656 c -2.9828,0.12494 -5.64728,0.45369 -5.92188,0.72852 -0.2746,0.27483 -3.8e-4,1.34004 0.60352,2.36719 0.84484,1.43021 1.59429,3.17849 2.05078,4.61914 0.0809,0.25542 0.10103,0.43191 0.1582,0.6582 4.70617,-1.57825 18.12391,-5.20125 27.06836,1.49219 -1.08397,-3.03222 -2.10966,-5.73003 -3.05078,-8.0332 z"
         style="fill:#3f123f;fill-opacity:1;stroke:none;stroke-opacity:1"
         id="path225" />
      <path
         d="m 250.16992,209.78906 c -2.24849,0.0212 -6.42877,1.72526 -10.66015,4.34375 -2.4467,1.51405 -5.02186,3.09759 -5.72266,3.51953 -0.15734,0.0947 -0.28119,0.1759 -0.43555,0.26953 5.92291,-0.94622 14.17093,-1.92221 23.8418,-1.9375 -0.67339,-2.14932 -6.05105,-6.19531 -7.02344,-6.19531 z"
         style="fill:#3f123f;fill-opacity:1;stroke:none;stroke-opacity:1"
         id="path222"
         sodipodi:nodetypes="sssccscc" />
      <path
         style="fill:#3f123f;fill-opacity:1;stroke:none;stroke-opacity:1"
         d="m 586.9141,240.08398 c -8.2164,0.0308 -14.4513,-4.83391 -19.7637,-8.55859 3.8771,9.3384 6.7071,26.04007 7.2363,43.69531 0.2084,6.952 0.5539,12.63867 0.7676,12.63867 0.2137,0 1.0239,-1.22275 1.8008,-2.71875 0.7769,-1.49599 2.0081,-4.30423 2.7363,-6.24023 0.7282,-1.936 1.5686,-4.09678 1.8672,-4.80078 0.6641,-1.56617 3.0387,-10.46498 3.8437,-14.40039 1.334,-6.52151 1.8139,-13.07971 1.5118,-19.61524 z"
         id="path172" />
      <path
         style="fill:#3f123f;fill-opacity:1;stroke:none;stroke-opacity:1"
         d="m 76.71484,226.61719 c -5.11283,6.09601 -10.16521,11.47952 -16.49804,12.74609 -2.15439,0.43088 -3.92892,0.23603 -5.40039,-0.40234 -0.022,1.36669 -0.0413,2.76402 -0.0391,4.41992 0.014,10.03686 0.22513,12.42496 1.64453,18.55859 0.8961,3.872 2.20044,8.62455 2.89843,10.56055 0.6981,1.936 1.73996,4.81639 2.31446,6.40039 0.5746,1.584 1.81526,4.30058 2.75586,6.03711 l 1.70898,3.15625 0.41797,-3.47656 c 0.2292,-1.91253 0.45049,-6.64558 0.49219,-10.51758 0.1335,-12.40528 2.24399,-27.3063 5.21289,-36.79883 1.0853,-3.47001 2.63232,-7.06994 4.49219,-10.68359 z"
         id="path153" />
      <path
         style="fill:#3f123f;fill-opacity:1;stroke:none;stroke-opacity:1"
         d="m 126.2864,303.76912 c -2.0362,-13.38248 -1.8481,-44.28156 0.3156,-51.82586 0.5665,-1.97532 0.5531,-1.99028 -1.4316,-1.59334 -1.1019,0.22039 -2.9571,1.12807 -4.1227,2.01708 -8.6818,6.62197 -8.6704,23.09092 0.033,47.01009 1.7893,4.9177 5.4093,11.82662 5.9259,11.31001 0.1588,-0.15887 -0.1651,-3.27196 -0.7198,-6.91798 z"
         id="path40" />
      <path
         style="fill:#3f123f;fill-opacity:1;stroke:none;stroke-opacity:1"
         d="m 517.1909,306.09823 c 2.4836,-5.03607 7.6548,-19.98162 8.7019,-25.14973 1.1927,-5.88634 0.8774,-16.85221 -0.5979,-20.79527 -1.5706,-4.19765 -4.8854,-8.19077 -8.2593,-9.94936 l -2.5241,-1.31561 0.3279,2.36587 c 0.1803,1.30123 0.5971,3.94987 0.9262,5.88587 1.7819,10.48222 1.2307,36.50304 -1.0212,48.2163 -1.5347,7.98244 -1.1776,8.09074 2.4465,0.74193 z"
         id="path39" />
      <path
         style="fill:#3f123f;fill-opacity:1;stroke:none;stroke-opacity:1"
         d="m 327.86,421.94924 c 3.52,-3.33036 8.3223,-7.71653 10.6718,-9.74704 2.3496,-2.03051 4.1834,-3.78031 4.0753,-3.88844 -0.1082,-0.10814 -2.1745,0.28081 -4.5919,0.86432 -2.5767,0.62198 -8.3671,1.19307 -13.9952,1.38031 -7.9444,0.2643 -10.7589,0.0958 -16.32,-0.97696 -3.696,-0.71299 -7.296,-1.4879 -8,-1.72202 -0.704,-0.23412 0.8637,1.54223 3.4838,3.94746 2.6201,2.40522 7.5161,7.02913 10.88,10.27535 3.3639,3.24622 6.4042,5.90672 6.7562,5.91222 0.352,0.006 3.52,-2.71483 7.04,-6.0452 z"
         id="path20" />
      <path
         style="fill:#3f123f;fill-opacity:1;stroke:none;stroke-opacity:1"
         d="m 142.93555,419.75781 c -11.05106,2.25987 -22.6089,-1.05254 -32.58789,-5.93945 16.8599,17.22243 23.6488,26.31734 29.96679,35.53516 l 2.36719,3.45312 c 2.68611,-5.34593 5.53803,-10.58298 8.60938,-15.64258 -3.71295,-7.96855 -7.83734,-16.42867 -8.34961,-17.39453 -10e-4,-0.003 -0.004,-0.009 -0.006,-0.0117 z"
         id="path158" />
      <path
         style="fill:#3f123f;fill-opacity:1;stroke:none;stroke-opacity:1"
         d="m 163.16016,388.3125 c -3.72592,6.83392 -9.62748,10.04468 -13.88868,11.54687 1.01548,1.3447 1.92986,2.52049 3.08594,4.08594 1.57261,2.12949 5.90853,10.32186 9.48633,17.47461 3.66767,-4.97506 7.49946,-9.65657 11.45703,-14.05469 -3.16785,-6.9845 -6.90926,-14.66177 -8.40234,-16.55664 -0.91824,-1.16518 -1.60558,-2.16823 -1.73828,-2.49609 z"
         id="path160" />
      <path
         style="fill:#3f123f;fill-opacity:1;stroke:none;stroke-opacity:1"
         d="m 491.3398,400.7168 c -5.1201,-2.08876 -9.9329,-7.84841 -13.1132,-12.36328 -3.8923,6.01169 -6.7773,10.75419 -8,12.97851 l -2.6914,4.89649 c 4.1897,4.55072 8.344,9.6044 12.3378,14.99609 3.4401,-6.90826 7.488,-14.72856 9.1485,-17.20508 0.7205,-1.07457 1.4927,-2.17267 2.3183,-3.30273 z"
         id="path178" />
      <path
         style="fill:#3f123f;fill-opacity:1;stroke:none;stroke-opacity:1"
         d="m 528.875,415.68359 c -19.3682,8.4467 -25.7559,8.79142 -30.4688,3.97852 -2.7561,5.651 -5.6134,12.02847 -7.8359,17.52734 2.7043,4.44992 5.2061,8.90961 7.4356,13.36133 2.7204,-2.08259 5.272,-4.17829 6.1191,-5.43359 7.1382,-10.57823 13.9479,-18.7613 24.75,-29.4336 z"
         id="path181" />
      <path
         style="fill:#3f123f;fill-opacity:1;stroke:none;stroke-opacity:1"
         d="m 308.4707,535.65039 c 1.4653,3.89447 1.9869,7.97746 -2.9004,7 -7.6927,-1.53854 -9.7337,0.5529 -14.7187,4.79297 0.242,-0.1223 0.5278,-0.25052 0.8613,-0.38867 2.5327,-1.04908 10.6057,-0.53778 13.3828,0.84765 2.6798,1.33683 4.0408,0.65874 5.375,-2.67578 0.7962,-1.99004 0.8633,-3.02133 0.3242,-4.97851 -0.4944,-1.79508 -1.2669,-3.31652 -2.3242,-4.59766 z"
         id="path203" />
      <path
         style="fill:#3f123f;fill-opacity:1;stroke:none;stroke-opacity:1"
         d="m 289.9102,548.22461 c -0.5447,0.45594 -1.078,0.90508 -1.7032,1.40234 -7.1399,5.67951 -21.2558,3.08399 -21.2558,3.08399 0,0 -4.5446,-0.81123 -10.711,-13.79297 -3.3512,-7.05519 -1.0427,-19.12311 1.7598,-28.68945 -2.3499,3.47239 -4.7561,8.44692 -6.084,12.76367 -1.1685,3.79884 -1.3053,5.40318 -0.9844,11.52148 0.5835,11.1236 3.5773,18.81642 9.6309,24.74414 5.3736,5.26192 9.1502,6.42328 19.8027,6.08985 5.5249,-0.17292 7.1591,-0.44458 8.17,-1.35938 1.1166,-1.01053 1.6411,-1.05729 4.5039,-0.39648 4.8359,1.11627 6.3957,0.93678 8.3867,-0.97071 1.9233,-1.84262 2.3301,-4.46863 1.1679,-7.52539 -0.8666,-2.27938 -5.9991,-5.37637 -9.7285,-5.87109 -2.0492,-0.27184 -3.0147,-0.57673 -2.955,-1 z"
         id="path202" />
      <path
         style="fill:#3f123f;fill-opacity:1;stroke:none;stroke-opacity:1"
         d="m 311.0234,522.98242 c -7.7235,-2.02896 -12.3573,0.46065 -14.8711,2.85156 4.3088,-0.95855 9.4322,2.41749 13.4864,0.65821 0.7893,-0.97413 0.9941,-2.31414 1.3847,-3.50977 z"
         id="path200" />
      <path
         style="fill:#3f123f;fill-opacity:1;stroke:none;stroke-opacity:1"
         d="m 310.3184,497.4043 c -0.6254,0.38855 -1.4041,0.72668 -2.42,0.96679 -6.3109,1.49167 -27.0803,9.40968 -17.0976,9.75391 0.7366,0.0254 1.3028,0.0296 1.9277,0.041 3.8004,-3.64988 6.2942,-4.62696 11.7676,-4.62696 4.3051,0 4.5468,-0.0784 5.166,-1.70703 0.4173,-1.09759 0.6231,-2.75535 0.6563,-4.42773 z"
         id="path55" />
      <path
         style="fill:#3f123f;fill-opacity:1;stroke:none;stroke-opacity:1"
         d="m 333.8316,535.65039 c -1.4653,3.89447 -1.9869,7.97746 2.9004,7 7.6926,-1.53854 9.7337,0.5529 14.7187,4.79297 -0.2421,-0.1223 -0.5278,-0.25052 -0.8613,-0.38867 -2.5327,-1.04908 -10.6057,-0.53778 -13.3828,0.84765 -2.6798,1.33683 -4.0408,0.65874 -5.375,-2.67578 -0.7962,-1.99004 -0.8633,-3.02133 -0.3242,-4.97851 0.4944,-1.79508 1.2669,-3.31652 2.3242,-4.59766 z"
         id="path209" />
      <path
         style="fill:#3f123f;fill-opacity:1;stroke:none;stroke-opacity:1"
         d="m 352.3921,548.22461 c 0.5446,0.45594 1.078,0.90508 1.7031,1.40234 7.14,5.67951 21.2559,3.08399 21.2559,3.08399 0,0 4.5446,-0.81123 10.7109,-13.79297 3.3513,-7.05519 1.0427,-19.12311 -1.7597,-28.68945 2.3498,3.47239 4.7561,8.44692 6.084,12.76367 1.1685,3.79884 1.3052,5.40318 0.9843,11.52148 -0.5835,11.1236 -3.5772,18.81642 -9.6308,24.74414 -5.3736,5.26192 -9.1502,6.42328 -19.8028,6.08985 -5.5249,-0.17292 -7.159,-0.44458 -8.1699,-1.35938 -1.1166,-1.01053 -1.6411,-1.05729 -4.5039,-0.39648 -4.8359,1.11627 -6.3957,0.93678 -8.3867,-0.97071 -1.9233,-1.84262 -2.3302,-4.46863 -1.168,-7.52539 0.8666,-2.27938 5.9991,-5.37637 9.7285,-5.87109 2.0492,-0.27184 3.0148,-0.57673 2.9551,-1 z"
         id="path208" />
      <path
         style="fill:#3f123f;fill-opacity:1;stroke:none;stroke-opacity:1"
         d="m 331.2788,522.98242 c 7.7236,-2.02896 12.3574,0.46065 14.8711,2.85156 -4.3087,-0.95855 -9.4321,2.41749 -13.4863,0.65821 -0.7893,-0.97413 -0.9942,-2.31414 -1.3848,-3.50977 z"
         id="path206" />
      <path
         style="fill:#3f123f;fill-opacity:1;stroke:none;stroke-opacity:1"
         d="m 331.9839,497.4043 c 0.6254,0.38855 1.4041,0.72668 2.4199,0.96679 6.3109,1.49167 27.0804,9.40968 17.0977,9.75391 -0.7366,0.0254 -1.3028,0.0296 -1.9277,0.041 -3.8005,-3.64988 -6.2943,-4.62696 -11.7676,-4.62696 -4.3051,0 -4.5468,-0.0784 -5.166,-1.70703 -0.4173,-1.09759 -0.6231,-2.75535 -0.6563,-4.42773 z"
         id="path82" />
      <path
         style="fill:#3f123f;fill-opacity:1;stroke:none;stroke-opacity:1"
         d="m 103.94727,223.5625 c -2.61772,8.53694 -5.32691,18.14184 -6.14454,23.86523 -1.2912,9.03843 -1.03109,25.69669 2.76368,36.45899 -1.12225,-7.06168 -1.25783,-16.96255 -0.24414,-23.99219 1.54598,-10.72089 5.9146,-25.45247 10,-33.7207 1.93297,-3.91196 2.64181,-6.1543 1.94531,-6.1543 -0.61512,0 -5.07295,1.95576 -8.32031,3.54297 z"
         id="path163" />
      <path
         style="fill:#3f123f;fill-opacity:1;stroke:none;stroke-opacity:1"
         d="m 209.44727,109.94922 c -7.16744,-5.96076 -8.22351,5.79183 -8.375,17.45703 -0.11737,9.03674 -2.99475,16.67756 -5.7793,22.00195 0.33982,2.42871 0.68663,4.33366 0.98828,5.01172 0.3133,0.704 1.20387,3.29577 1.98047,5.75977 1.4915,4.73199 5.02285,12.48315 5.68555,12.47851 0.2156,-0.001 1.4893,-2.14017 2.83007,-4.75195 l 2.4375,-4.75 -1.35547,-2.65625 c -0.74557,-1.46146 -1.26502,-3.42789 -1.15625,-4.36914 0.1856,-1.60558 0.39429,-1.70928 3.39649,-1.67969 1.76,0.0173 3.70431,0.26451 4.32031,0.54883 1.5108,0.69729 1.46352,-0.64126 -0.14648,-4.18945 -2.3719,-5.22709 -1.18883,-7.80808 3.43554,-7.5 l 2.63086,0.17578 -0.15625,-3.17383 c -0.3173,-6.43727 -2.21927,-14.04126 -4.99804,-19.98242 -1.5255,-3.26135 -3.14958,-6.32524 -3.60938,-6.8086 -0.4598,-0.48337 -1.33672,-1.48721 -1.94922,-2.23046 -0.96765,-1.17413 -1.005,-1.32334 -0.17968,-1.3418 z"
         id="path165" />
      <path
         style="fill:#3f123f;fill-opacity:1;stroke:none;stroke-opacity:1"
         d="m 446.0352,150.67773 c -2.4266,-5.44456 -4.518,-12.86829 -4.1563,-21.98242 0.446,-11.23828 -1.9043,-22.13015 -8.125,-20.125 0.1655,0.0663 -0.1143,0.38663 -1.0234,1.02344 -0.7338,0.51398 -1.6975,1.81084 -2.1407,2.88086 -0.4433,1.07002 -1.0039,1.94531 -1.248,1.94531 -0.5946,0 -2.3502,3.73724 -4.5488,9.68555 -1.6041,4.34013 -2.3561,7.8775 -3.5938,16.89844 l -0.3554,2.58203 2.4902,-0.23633 c 1.7776,-0.16952 2.9317,0.1195 4.0312,1.00976 l 1.5391,1.2461 -1.3145,3.44726 c -0.7234,1.89582 -1.5254,3.94292 -1.7832,4.54883 -0.4247,0.99829 -0.08,1.06611 3.6817,0.71485 3.7112,-0.34655 4.1926,-0.25928 4.539,0.83203 0.4034,1.27103 -0.1757,3.82921 -1.5214,6.7207 -0.6943,1.49166 -0.5905,1.97966 0.8964,4.16016 0.9265,1.35859 1.8615,3.55696 2.0762,4.88476 0.2146,1.32781 0.6044,2.54656 0.8672,2.70899 1.1599,0.71686 4.9898,-6.61836 7.0195,-13.44336 0.7328,-2.464 1.5996,-5.34439 1.9258,-6.40039 0.2772,-0.89724 0.5194,-1.96034 0.7442,-3.10157 z"
         id="path168" />
      <path
         style="fill:#3f123f;fill-opacity:1;stroke:none;stroke-opacity:1"
         d="m 536.3106,222.93945 c -3.1941,-1.54639 -6.7326,-2.92951 -7.0899,-2.57226 -0.1893,0.18931 0.1221,1.26834 0.6934,2.39843 3.4347,6.79477 8.7796,23.87059 10.4257,33.31055 1.2805,7.34295 1.6935,14.09285 1.168,20.77344 5.7089,-14.39446 0.014,-37.93501 -5.1972,-53.91016 z"
         id="path175" />
      <path
         d="m 320.32617,272.96289 c -3.49381,0.0133 -5.14466,0.44427 -6.06836,1.43555 -0.6448,0.69215 -1.94678,3.70167 -2.89258,6.6875 -0.55455,1.75087 -1.8278,4.86878 -3.30468,8.22265 1.36668,-0.85572 2.6555,-1.71267 3.66406,-2.48828 3.29535,-2.5342 6.64222,-5.71875 9.12889,-5.71875 4.3423,0 4.5209,3.72299 11.1094,7.93164 0.4375,0.27946 0.8951,0.50422 1.3711,0.71094 -1.3883,-2.91993 -2.6814,-5.99246 -3.3535,-8.05859 -1.9455,-5.98042 -3.5592,-8.50157 -5.5059,-8.60157 -1.6155,-0.083 -2.9838,-0.12552 -4.14843,-0.12109 z"
         style="fill:#3f123f;fill-opacity:1;stroke:none;stroke-opacity:1"
         id="path238" />
    </g>
    <g
       id="g3"
       inkscape:label="Gray Shadow"
       style="stroke:none"
       transform="translate(-0.5,-0.5)">
      <path
         style="opacity:1;fill:#140a24;fill-opacity:1;stroke:none;stroke-opacity:1"
         d="m 256.2324,484.88477 c -15.0055,3.52 -28.0749,-11.89768 -28.4023,-33.8711 -0.053,-3.58761 0.4147,22.64552 1.0293,27.51563 -0.5208,-1.66151 -1.9845,-7.48478 -3.6114,-13.22657 2.5488,14.0351 6.276,33.13656 8.1817,34.67579 2.9833,2.40959 0.1152,-15.03125 0.1152,-15.03125 0,0 9.1783,11.70411 11.1289,12.39257 1.1126,0.39267 6.7666,-6.40139 11.5586,-12.45507 z"
         id="path192" />
      <path
         d="m 244.5352,442.11523 15.1445,11.90235 c 3.0039,1.18006 -1.2542,0.61721 -2.0117,0.89453 l -2.0762,0.92187 c 0,0 13.2082,12.07178 19.5996,18.78516 l 8.5938,-1.33008 -18.0313,-17.58984 c 0,0 15.2017,1.41574 15.1133,-0.61719 -0.064,-1.47072 -23.3291,-8.91395 -36.332,-12.9668 z"
         style="opacity:1;fill:#140a24;fill-opacity:1;stroke:none"
         id="path241" />
      <path
         d="M 184.10547,536.05469 C 170.06571,532.47523 162.2492,521.0131 160.71484,518 c -1.37202,-2.69414 1.91917,13.26494 -1.33203,10.98828 -0.15922,-0.1115 -0.31273,-0.27335 -0.4707,-0.39844 3.88468,5.26357 11.36287,10.70755 25.19336,7.46485 z"
         style="opacity:1;fill:#140a24;fill-opacity:1;stroke:none"
         id="path245" />
      <path
         d="m 237.66211,541.98828 c -0.19049,2.25484 -0.46334,3.78747 -0.96484,4.0918 -5.1337,3.11516 -6.50224,-16.02412 -1.33594,-25.3711 -0.86873,-2.61542 -3.9891,4.04898 -4.97071,5.43164 -2.28776,10.11799 -4.01064,27.57296 10.91018,28.95704 -1.43203,-3.49522 -2.6721,-8.49923 -3.63869,-13.10938 z"
         style="opacity:1;fill:#140a24;fill-opacity:1;stroke:none"
         id="path248" />
      <path
         style="opacity:1;fill:#140a24;fill-opacity:1;stroke:none;stroke-opacity:1"
         d="m 384.3106,484.88477 c 15.0055,3.52 28.0749,-11.89768 28.4023,-33.8711 0.053,-3.58761 -0.4147,22.64552 -1.0293,27.51563 0.5208,-1.66151 1.9845,-7.48478 3.6114,-13.22657 -2.5488,14.0351 -6.276,33.13656 -8.1817,34.67579 -2.9833,2.40959 -0.1152,-15.03125 -0.1152,-15.03125 0,0 -9.1783,11.70411 -11.1289,12.39257 -1.1126,0.39267 -6.7666,-6.40139 -11.5586,-12.45507 z"
         id="path257" />
      <path
         d="m 396.0078,442.11523 -15.1445,11.90235 c -3.0039,1.18006 1.2542,0.61721 2.0117,0.89453 l 2.0762,0.92187 c 0,0 -13.2082,12.07178 -19.5996,18.78516 l -8.5938,-1.33008 18.0313,-17.58984 c 0,0 -15.2017,1.41574 -15.1133,-0.61719 0.064,-1.47072 23.3291,-8.91395 36.332,-12.9668 z"
         style="opacity:1;fill:#140a24;fill-opacity:1;stroke:none"
         id="path261" />
      <path
         d="M 456.4375,536.05469 C 470.4773,532.47523 478.2938,521.0131 479.8282,518 c 1.372,-2.69414 -1.9192,13.26494 1.332,10.98828 0.1592,-0.1115 0.3127,-0.27335 0.4707,-0.39844 -3.8847,5.26357 -11.3629,10.70755 -25.1934,7.46485 z"
         style="opacity:1;fill:#140a24;fill-opacity:1;stroke:none"
         id="path262" />
      <path
         d="m 402.8809,541.98828 c 0.1905,2.25484 0.4633,3.78747 0.9648,4.0918 5.1337,3.11516 6.5023,-16.02412 1.336,-25.3711 0.8687,-2.61542 3.9891,4.04898 4.9707,5.43164 2.2878,10.11799 4.0106,27.57296 -10.9102,28.95704 1.432,-3.49522 2.6721,-8.49923 3.6387,-13.10938 z"
         style="opacity:1;fill:#140a24;fill-opacity:1;stroke:none"
         id="path263" />
    </g>
    <path
       id="path33"
       style="fill:#160e23;fill-opacity:1;stroke:none;stroke-opacity:1"
       d="m 319.8204,149.12 c -0.5763,-4.51517 -0.5806,-17.57427 -0.01,-23.36 0.4268,-4.31075 0.4615,-4.38329 0.9185,-1.92 0.6041,3.25564 0.6013,22.11286 0,25.92 l -0.4577,2.88 z m 115.6751,60.33074 c -1.3945,-1.6661 -3.6596,-4.4741 -5.0334,-6.24 -2.3735,-3.05084 -2.3941,-3.11512 -0.4132,-1.29074 2.6417,2.43293 8.9558,10.56 8.2044,10.56 -0.1222,0 -1.3632,-1.36317 -2.7578,-3.02926 z m -232.0741,0.29253 c 1.8712,-2.71967 9.3152,-10.92412 7.9692,-8.78327 -1.1446,1.82047 -8.5536,10.83106 -9.27,11.2738 -0.3949,0.24406 0.1905,-0.87668 1.3008,-2.49053 z"
       inkscape:label="Hoodie Details" />
    <g
       id="g2"
       inkscape:label="White"
       style="stroke:none"
       transform="translate(-0.5,-0.5)">
      <path
         id="path13"
         style="fill:#fefefd;fill-opacity:1;stroke:none;stroke-opacity:1"
         d="m 344.82,473.88107 c 1.591,-0.75241 1.601,-0.81147 1.7766,-10.49229 0.1665,-9.17987 0.099,-9.8128 -1.1755,-11.08766 -1.6099,-1.60995 -4.1447,-1.27504 -5.8811,0.77707 -0.9679,1.14391 -1.12,2.75739 -1.12,11.88394 v 10.56032 l 2.4,-0.44235 c 1.32,-0.2433 3.12,-0.78286 4,-1.19903 z m -48.5563,0 c -1.591,-0.75241 -1.601,-0.81147 -1.7766,-10.49229 -0.1665,-9.17987 -0.099,-9.8128 1.1755,-11.08766 1.6099,-1.60995 4.1447,-1.27504 5.8811,0.77707 0.9679,1.14391 1.12,2.75739 1.12,11.88394 v 10.56032 l -2.4,-0.44235 c -1.32,-0.2433 -3.12,-0.78286 -4,-1.19903 z" />
      <path
         style="fill:#fefefd;fill-opacity:1;stroke:none;stroke-opacity:1"
         d="m 270.58,176.48377 c 12.5877,-4.40679 18.1132,-5.75512 31.04,-7.57431 14.3791,-2.02357 19.4691,-2.20324 30.6054,-1.08035 16.8557,1.69958 26.6205,3.92856 41.9823,9.58323 4.3713,1.60905 8.0514,2.82194 8.178,2.69531 0.3739,-0.37394 -7.9238,-4.54466 -15.2164,-7.64832 -25.9457,-11.04212 -47.7954,-13.23567 -71.2834,-7.15632 -13.4482,3.48077 -27.3134,8.78899 -35.2259,13.48607 -4.6264,2.74636 -4.2793,2.66568 9.92,-2.30531 z"
         id="path72"
         inkscape:label="path72" />
      <path
         style="fill:#fefefd;fill-opacity:1;stroke:none;stroke-opacity:1"
         d="m 359.7869,235.834 c 7.7987,-6.23829 8.7186,-6.84785 15.6165,-10.34782 7.9227,-4.01993 15.0017,-5.51342 25.7366,-5.42976 9.8637,0.0769 9.6372,0.1065 7.6102,-0.9952 -2.799,-1.5213 -15.2053,-2.45787 -21.4863,-1.62203 -7.9183,1.05373 -11.5592,2.62055 -18.7639,8.07471 -3.7767,2.85906 -15.36,13.83308 -15.36,14.55205 0,0.92121 1.0032,0.28252 6.6469,-4.23195 z"
         id="path70"
         inkscape:label="Right Eyebrow" />
      <path
         style="fill:#fefefd;fill-opacity:1;stroke:none;stroke-opacity:1"
         d="m 286.6478,238.74 c -1.7543,-3.18319 -16.9046,-16.26787 -21.5078,-18.57547 -6.8193,-3.4185 -15.9326,-4.26376 -26.24,-2.43378 -10.8471,1.9258 -9.8842,2.60886 3.6807,2.61094 9.7952,0.001 11.5794,0.17107 15.8315,1.50467 2.6358,0.82663 5.9478,2.09025 7.36,2.80803 4.3752,2.22366 12.9921,8.18861 17.016,11.77907 4.085,3.64496 4.8488,4.10142 3.8596,2.30654 z"
         id="path71"
         inkscape:label="Left Eyebrow" />
      <path
         style="fill:#fefefd;fill-opacity:1;stroke:none;stroke-opacity:1"
         d="m 177.7436,246.42 c 4.5803,-11.3954 26.3358,-49.47943 39.0279,-68.32 7.0419,-10.45344 8.0684,-12.49157 4.2362,-8.41147 -7.7062,8.20466 -18.4741,22.59262 -24.9752,33.37147 -7.4983,12.43238 -16.2655,31.97607 -20.4558,45.6 -0.9265,3.01207 0.7542,1.27477 2.1669,-2.24 z"
         id="path69" />
      <path
         style="fill:#fefefd;fill-opacity:1;stroke:none;stroke-opacity:1"
         d="m 467.3731,253.78 c -3.4451,-16.72031 -18.1453,-47.20084 -31.5606,-65.44 -5.219,-7.09569 -15.2537,-19.17216 -18.0809,-21.76 -1.9862,-1.81801 -1.9527,-1.71601 0.6308,1.92 7.3319,10.31875 15.2885,23.06958 28.5546,45.76 11.4816,19.63818 13.5112,23.72933 18.9708,38.24 1.4261,3.79042 2.127,4.39444 1.4853,1.28 z"
         id="path68" />
      <path
         style="fill:#fefefd;fill-opacity:1;stroke:none;stroke-opacity:1"
         d="m 322.2602,316.34 c 6.0722,0 11.0402,-0.24445 11.04,-0.54323 -6e-4,-1.35977 -4.1079,-4.19333 -7.1289,-4.91804 -3.6857,-0.8842 -11.1599,-0.49533 -13.4787,0.70128 -2.4021,1.23962 -4.3526,3.29859 -4.3526,4.59468 0,0.98477 0.2695,1.11364 1.44,0.68844 0.792,-0.28772 6.4081,-0.52313 12.4802,-0.52313 z"
         id="path63" />
      <path
         style="fill:#fefefd;fill-opacity:1;stroke:none;stroke-opacity:1"
         d="m 261.7589,416.51904 c -1.5672,-1.30685 -7.0526,-4.33772 -20.2989,-11.21586 -4.576,-2.37608 -8.608,-4.54276 -8.96,-4.81484 -1.2267,-0.9482 -5.4844,-2.49798 -5.0844,-1.85068 1.246,2.01602 17.2082,11.37051 27.8044,16.29446 6.5669,3.0516 9.0049,3.64326 6.5389,1.58692 z"
         id="path59" />
      <path
         style="fill:#fefefd;fill-opacity:1;stroke:none;stroke-opacity:1"
         d="m 388.4933,414.05814 c 9.8514,-4.70822 22.3093,-11.96519 31.5623,-18.38577 9.8568,-6.83946 9.8876,-8.40108 0.045,-2.26246 -6.8474,4.27047 -17.7372,10.51303 -26.3203,15.08815 -11.6471,6.20831 -17.3081,9.92194 -15.1251,9.92194 0.3915,0 4.8187,-1.96284 9.8384,-4.36186 z"
         id="path58" />
      <path
         style="fill:#fefefd;fill-opacity:1;stroke:none;stroke-opacity:1"
         d="m 392.5749,267.12267 c 4.2172,-1.96363 6.5743,-5.03561 7.069,-9.21297 0.5813,-4.90793 -0.1852,-7.57934 -3.0742,-10.71346 -4.9099,-5.32662 -11.3273,-6.1038 -16.6523,-2.01667 -4.2094,3.23085 -5.2436,5.04092 -5.54,9.69549 -0.4273,6.71092 2.0281,10.59997 8.1033,12.8344 3.4911,1.28401 6.4452,1.11228 10.0942,-0.58679 z"
         id="path35" />
      <path
         style="fill:#fefefd;fill-opacity:1;stroke:none;stroke-opacity:1"
         d="m 260.8082,267.08867 c 6.6549,-3.09839 9.1225,-11.73439 5.0708,-17.74677 -3.4513,-5.12135 -9.8954,-7.90684 -14.6567,-6.33545 -2.656,0.87653 -7.378,5.39216 -8.5676,8.19299 -1.8615,4.38278 -0.7282,9.69394 2.8045,13.1435 4.4689,4.36385 9.8181,5.32075 15.349,2.74573 z"
         id="path34"
         inkscape:label="path34" />
      <path
         id="path3"
         style="fill:#fefefd;fill-opacity:1;stroke:none;stroke-opacity:1"
         d="m 307.7,583.79782 c -1.584,-0.14027 -8.7561,-0.70102 -15.9379,-1.24611 -30.1529,-2.28855 -61.7664,-7.25775 -91.038,-14.30987 -15.2969,-3.68532 -31.1587,-8.68484 -37.9162,-11.95084 -9.9792,-4.82315 -16.6524,-11.34676 -20.8994,-20.431 -2.9305,-6.26837 -3.8085,-10.26776 -3.8085,-17.34891 0,-7.52504 0.9383,-13.00253 4.2337,-24.71417 6.5956,-23.44044 18.3132,-46.69946 33.3878,-66.27379 5.6492,-7.33551 16.9783,-19.00114 22.6137,-23.28533 3.4819,-2.6471 4.425,-3.70425 4.1902,-4.69687 -0.1666,-0.70451 -0.9165,-3.29693 -1.6665,-5.76093 -0.7499,-2.464 -1.5414,-6.87282 -1.7589,-9.79738 l -0.3954,-5.31738 -4.0176,-2.8669 c -8.6763,-6.19125 -20.0717,-19.88848 -26.8071,-32.22197 -10.6911,-19.57671 -13.8374,-39.7359 -10.1941,-65.31637 0.5264,-3.696 1.3748,-8.304 1.8854,-10.24 0.5106,-1.936 1.6273,-6.544 2.4817,-10.24 1.6477,-7.12829 7.7064,-24.63344 11.2971,-32.64 3.1587,-7.04346 16.06,-32.41941 18.4589,-36.30728 l 2.0652,-3.34728 -2.2547,-3.69272 c -3.2366,-5.30094 -7.7868,-16.92554 -8.9607,-22.89272 -3.1415,-15.96825 -3.0055,-40.53837 0.3185,-57.54077 1.685,-8.619041 5.7849,-20.059357 9.9421,-27.742698 l 3.1418,-5.80664 5.7394,4.798284 c 3.1567,2.639056 7.3235,5.879617 9.2595,7.201247 1.936,1.321631 5.824,3.973382 8.64,5.892781 15.2545,10.397527 24.3125,18.582316 29.6569,26.797796 1.9464,2.992 3.6106,5.54071 3.6981,5.6638 0.088,0.1231 2.2666,-1.20623 4.8421,-2.95406 13.8318,-9.38646 29.2267,-15.974713 49.1629,-21.039286 6.1796,-1.569869 17.4897,-1.830351 25.0097,-0.575999 16.3844,2.732977 39.3362,12.291125 52.5161,21.870085 1.6311,1.1855 3.2783,2.15546 3.6604,2.15546 0.3822,0 2.173,-2.19064 3.9797,-4.86809 1.8068,-2.67745 5.4875,-7.07888 8.1796,-9.78096 6.1187,-6.141614 10.311,-9.353022 29.6971,-22.748619 1.4946,-1.032718 5.6169,-4.245791 9.1608,-7.140163 7.36,-6.011056 6.3002,-6.193167 10.2962,1.769195 2.0796,4.14375 5.6425,13.332118 7.6501,19.728637 2.1602,6.883 3.5525,18.29939 3.9066,32.03366 0.4027,15.61714 -0.3917,25.86548 -2.7014,34.84634 -1.6529,6.42732 -6.3839,17.73007 -9.0036,21.51023 -1.6992,2.45196 -1.703,2.48265 -0.5225,4.23981 1.5752,2.3447 1.9888,3.1133 8.7029,16.16996 7.0186,13.64872 12.1713,24.85721 14.5638,31.68 0.9874,2.816 2.4292,6.704 3.2039,8.64 1.449,3.62099 5.9131,19.62469 7.4512,26.71195 2.8523,13.14319 3.3694,32.07116 1.2197,44.64805 -1.2272,7.17931 -5.9701,20.65589 -9.798,27.84 -6.1946,11.62595 -18.4537,26.26405 -27.7139,33.09197 l -3.5815,2.64085 -0.3976,4.70317 c -0.2186,2.58675 -1.1361,7.54571 -2.0388,11.01991 -0.9026,3.47421 -1.56,6.36881 -1.4608,6.43246 0.099,0.0636 2.3403,1.86242 4.9803,3.99727 9.8505,7.96569 19.8464,19.2548 29.7456,33.59411 9.3495,13.54307 19.285,34.89965 24.9517,53.63402 6.2242,20.57795 6.4817,32.49212 0.9475,43.84624 -4.8809,10.0139 -11.9068,16.63445 -22.6679,21.36008 -7.5685,3.32362 -24.2521,8.35219 -37.452,11.28826 -5.8052,1.29129 -10.7468,2.46629 -10.9811,2.61113 -0.656,0.40545 -36.4836,6.6527 -44.0638,7.6834 -23.1245,3.1443 -41.5158,4.682 -59.84,5.0032 -7.744,0.13574 -15.376,0.13203 -16.96,-0.008 z M 450.7012,42.808594 c -0.1374,-0.137952 -2.9368,2.317631 -6.2207,5.457031 -7.1857,6.869587 -18.1176,15.67806 -30.1387,24.28125 -10.9067,7.805538 -20.54,15.48417 -25.8574,20.611328 l -4.0176,3.873047 -8.7832,-4.195313 c -10.3557,-4.947718 -26.4219,-10.403932 -36.3027,-12.326171 -14.0913,-2.741331 -28.8264,-2.274529 -42.0606,1.330078 -12.8999,3.513533 -28.6221,9.465107 -36.2187,13.710937 -1.5639,0.874102 -3.1406,1.589844 -3.5039,1.589844 -0.3633,0 -2.703,-2.008279 -5.1993,-4.460938 C 247.18,87.552688 238.1568,80.416805 225.7793,71.625 213.89501,63.183545 205.4997,56.343475 197.97461,48.974609 c -7.07459,-6.927614 -7.0168,-6.919356 -8.9668,-1.435547 -0.6259,1.759999 -3.97139,8.960008 -7.43359,16 -5.36624,10.911486 -8.25748,17.610659 -10.38672,24.667969 0,0 0,0 0,0 -1.70294,5.64435 -2.94441,11.486427 -4.37891,20.132809 -1.1221,6.76341 -1.38756,11.075 -1.41406,23.04102 -0.03,13.44252 0.12378,15.57959 1.76758,24.63867 0.99,5.456 2.50283,11.79208 3.36133,14.08008 0.8585,2.288 2.56481,6.86541 3.79101,10.17187 l 2.22852,6.01172 -0.35938,0.71485 c 0,0 0,0 0,0 l -8.52343,16.95312 c -11.94529,23.75782 -15.49282,33.18499 -21.94141,58.3086 -1.4243,5.54887 -3.13803,18.12724 -3.82813,28.08593 -1.43039,20.64435 1.62769,36.6243 10.64258,55.60938 6.4237,13.52828 12.69224,22.08559 26.70313,36.44922 l 9.50586,9.74414 -3.76953,3.37695 c -3.99775,3.57858 -7.87109,7.61598 -11.67188,11.83984 0,0 0,0 0,0 -3.95758,4.39812 -7.78936,9.07962 -11.45703,14.05469 0,0 0,0 0,0 -3.69938,5.01808 -7.22791,10.26697 -10.55273,15.74414 0,0 0,0 0,0 -3.07135,5.0596 -5.92327,10.29664 -8.60938,15.64258 v 0 c -3.10337,6.17639 -6.01322,12.46005 -8.51172,18.87305 v 0 c -1.62788,4.17835 -3.12195,8.38921 -4.45898,12.61328 -1.3944,4.4053 -2.19423,7.47346 -2.99024,10.61914 0,0 0,0 0,0 -1.2575,4.9694 -2.16282,9.51728 -2.78125,15.1582 -1.95149,17.80165 1.86458,32.33423 11.50977,43.81836 11.33859,13.50044 23.9527,19.34592 61.85156,28.66797 30.93912,7.61012 72.78682,13.9454 105.27932,15.9375 6.9948,0.42884 42.0822,-0.18309 48.959,-0.85352 8.0421,-0.78402 28.7811,-3.3041 42.8144,-5.20312 26.0747,-3.52849 70.7673,-14.1791 86.7461,-20.67188 14.3377,-5.82589 25.825,-16.04516 31.7305,-28.22656 6.4128,-13.22788 7.0595,-29.3901 1.8457,-49.76758 0,0 0,0 0,0 -1.8093,-7.07126 -4.3721,-14.69042 -7.6133,-22.84179 0,0 0,0 0,0 -2.1295,-5.35558 -4.4769,-10.88388 -7.2305,-16.7461 -0.5644,-1.20161 -1.2195,-2.42145 -1.8261,-3.63281 0,0 0,0 0,0 -2.2295,-4.45173 -4.7313,-8.91141 -7.4356,-13.36133 0,0 0,0 0,0 -3.3248,-5.47102 -6.9086,-10.8501 -10.6973,-15.96484 0,0 0,0 0,0 -3.9938,-5.39169 -8.148,-10.44535 -12.3378,-14.99609 v 0 c -2.6022,-2.82632 -5.206,-5.52172 -7.7813,-7.88086 -3.4055,-3.1196 -6.1081,-5.88666 -6.0039,-6.14844 0.1041,-0.26178 3.6979,-4.18795 7.9844,-8.72656 17.0023,-18.00221 24.4076,-29.02061 31.1445,-46.33204 5.3707,-13.80076 7.0346,-23.08261 7.0566,-39.36132 0.022,-15.99759 -1.692,-27.66893 -6.7187,-45.75977 -5.0284,-18.09647 -8.4889,-26.77746 -19.252,-48.28906 -6.2666,-12.52502 -7.9464,-16.3706 -7.9394,-18.11914 v 0 c 5e-4,-0.12292 -0.068,-0.33801 -0.051,-0.44141 0.1761,-1.07277 1.764,-5.84713 3.5293,-10.60937 3.8768,-10.45867 5.6916,-19.37278 6.6738,-32.79102 1.2089,-16.51522 -0.7835,-36.31815 -5.2714,-52.537108 0,0 0,0 0,0 -0.014,-0.05169 -0.023,-0.110491 -0.037,-0.16211 -1.8063,-6.495636 -3.7469,-11.08479 -10.6601,-25.210937 -3.3592,-6.863993 -6.8154,-14.350674 -7.6817,-16.638672 -0.8663,-2.287998 -1.6886,-4.274157 -1.8261,-4.412109 z" />
      <path
         style="fill:#fefefd;fill-opacity:1;stroke:none;stroke-opacity:1"
         d="m 206.7383,412.5293 c -0.5149,-0.10401 -3.3961,2.11564 -6.4024,4.93164 l -10.3965,10.9082 c -2.2879,2.76941 -5.2367,6.56938 -6.5546,8.44531 -1.3178,1.87594 -2.6959,3.76004 -3.0606,4.1875 -2.5575,2.99694 -9.4268,14.71389 -14.1523,24.13867 -6.8914,13.74449 -11.9744,27.61487 -14.2168,38.79102 -1.2207,6.08355 -1.4808,8.21391 -1.1973,10.63086 5.5822,-16.41594 24.2261,-65.3449 58.6602,-99.27539 -0.4303,-0.46494 -0.7784,-0.87549 -0.9395,-1.1582 -0.4424,-0.776 -1.2252,-1.49561 -1.7402,-1.59961 z"
         id="path193" />
      <path
         style="fill:#fefefd;fill-opacity:1;stroke:none;stroke-opacity:1"
         d="m 192.9691,515.72927 c 0.1173,-0.33591 1.5948,-1.59097 3.2833,-2.78901 l 3.0699,-2.17827 -4.6699,-0.44356 c -6.0172,-0.57152 -14.0285,-2.43461 -14.0112,-3.25842 0.01,-0.352 1.2482,-0.83276 2.7573,-1.06836 5.2279,-0.81615 19.4517,-1.35063 23.249,-0.87361 l 3.8149,0.47922 -2.868,2.54971 c -1.5775,1.40234 -5.4655,3.81026 -8.64,5.35095 -6.4665,3.13831 -6.2775,3.06784 -5.9853,2.23135 z"
         id="path190" />
      <path
         style="fill:#fefefd;fill-opacity:1;stroke:none;stroke-opacity:1"
         d="m 202.4991,515.86001 c 0.057,-0.74038 9.4296,-7.17922 13.6658,-9.38789 l 3.7824,-1.97212 11.4679,-0.0812 c 12.42,-0.0879 12.9153,0.0552 11.2607,3.25331 l -0.8535,1.64987 -10.24,0.21928 c -10.9953,0.23545 -13.5123,0.76478 -23.04,4.84537 -4.5625,1.95406 -6.1089,2.33107 -6.0433,1.47335 z"
         id="path44" />
      <path
         style="fill:#fefefd;fill-opacity:1;stroke:none;stroke-opacity:1"
         d="m 433.2096,412.5293 c 0.5149,-0.10401 3.396,2.11564 6.4023,4.93164 l 10.3965,10.9082 c 2.288,2.76941 5.2368,6.56938 6.5547,8.44531 12.5661,17.88831 26.397,42.03431 31.4297,67.11719 1.2206,6.08355 1.4807,8.21391 1.1972,10.63086 -5.5822,-16.41594 -24.2261,-65.3449 -58.6601,-99.27539 0.4302,-0.46494 0.7783,-0.87549 0.9394,-1.1582 0.4424,-0.776 1.2253,-1.49561 1.7403,-1.59961 z"
         id="path198" />
      <path
         id="path204"
         style="fill:#fefefd;fill-opacity:1;stroke:none;stroke-opacity:1"
         d="m 309.8801,514.81464 c -0.6574,-1.71302 -5.6135,-4.24679 -9.119,-4.66196 -1.7765,-0.2104 -4.614,-0.0467 -6.3055,0.36378 -4.5314,1.09961 -9.9493,3.37161 -9.3538,3.9225 0.285,0.26363 2.8222,0.0607 5.6382,-0.45107 6.439,-1.17006 13.3655,-0.82418 16.695,0.83367 2.882,1.43499 2.9983,1.43466 2.4451,-0.007 z M 264.4275,508.18 c 2.5059,-2.376 6.66,-5.5871 9.2314,-7.13579 5.1226,-3.08531 15.5394,-7.26697 20.8475,-8.36892 4.5075,-0.93576 11.4566,-0.94491 13.1897,-0.0174 2.3614,1.26378 1.3257,-1.3031 -1.2172,-3.01677 -3.4479,-2.32352 -6.7722,-2.92474 -14.1389,-2.55713 -10.318,0.51489 -17.8665,3.57704 -23.4552,9.51488 -3.5936,3.81809 -10.7262,15.9011 -9.3865,15.9011 0.2052,0 2.4233,-1.944 4.9292,-4.32 z" />
      <path
         id="path210"
         style="fill:#fefefd;fill-opacity:1;stroke:none;stroke-opacity:1"
         d="m 332.4222,514.81464 c 0.6574,-1.71302 5.6135,-4.24679 9.119,-4.66196 1.7765,-0.2104 4.614,-0.0467 6.3055,0.36378 4.5314,1.09961 9.9493,3.37161 9.3538,3.9225 -0.285,0.26363 -2.8222,0.0607 -5.6382,-0.45107 -6.439,-1.17006 -13.3655,-0.82418 -16.695,0.83367 -2.882,1.43499 -2.9983,1.43466 -2.4451,-0.007 z M 377.8748,508.18 c -2.5059,-2.376 -6.66,-5.5871 -9.2314,-7.13579 -5.1226,-3.08531 -15.5394,-7.26697 -20.8475,-8.36892 -4.5075,-0.93576 -11.4566,-0.94491 -13.1897,-0.0174 -2.3614,1.26378 -1.3257,-1.3031 1.2172,-3.01677 3.4479,-2.32352 6.7722,-2.92474 14.1389,-2.55713 10.318,0.51489 17.8665,3.57704 23.4552,9.51488 3.5936,3.81809 10.7262,15.9011 9.3865,15.9011 -0.2052,0 -2.4233,-1.944 -4.9292,-4.32 z" />
      <path
         style="fill:#fefefd;fill-opacity:1;stroke:none;stroke-opacity:1"
         d="m 320.5664,101.73828 c -0.8323,-0.002 -1.6113,0.0386 -2.3301,0.12305 -9.7796,1.14849 -27.56473,7.39874 -38.91989,13.67969 -12.92348,7.14846 -22.87833,15.74669 -29.23243,25.24609 -5.76878,8.6245 -5.36128,8.87644 3.2168,1.99219 16.72576,-13.42315 34.20598,-21.90072 55.35942,-26.84375 7.4552,-1.74216 19.3267,-1.59342 26.5312,0.33203 21.3474,5.70526 37.4578,13.95653 54.2793,27.79687 2.5582,2.10483 4.8297,3.64883 5.0469,3.43164 0.5034,-0.50335 -0.8505,-3.87197 -2.8535,-7.10156 -2.1879,-3.5276 -13.0847,-14.25114 -18.045,-17.75781 -16.0047,-11.31474 -40.5682,-20.86214 -53.0527,-20.89844 z"
         id="path150" />
      <path
         style="fill:#fefefd;fill-opacity:1;stroke:none;stroke-opacity:1"
         d="m 320.5547,362.09961 c -0.28861,0 -1.29103,1.15958 -2.22853,2.57617 -2.0756,3.13641 -8.31053,7.86606 -13.51562,10.25391 -2.53243,1.16172 -7.26882,2.47645 -11.84571,3.41601 11.45152,5.3316 32.52926,11.58237 54.01566,-0.28711 -3.8081,-0.84401 -7.652,-1.99965 -10.3282,-3.20312 -4.6586,-2.09492 -10.6282,-6.60293 -13.5371,-10.22266 -1.1192,-1.39269 -2.2719,-2.5332 -2.5605,-2.5332 z"
         id="path183" />
      <path
         style="fill:#fefefd;fill-opacity:1;stroke:none;stroke-opacity:1"
         d="m 245.462,133.11666 c -0.9979,-11.00499 -11.9362,-25.65499 -27.042,-36.218125 -6.3097,-4.412199 -15.648,-9.507776 -16.6908,-9.107584 -1.5675,0.601495 -4.7787,8.26481 -5.7096,13.625409 -1.0384,5.97949 -0.5631,7.31893 1.0564,2.97738 1.5082,-4.04309 4.3356,-6.828104 6.8591,-6.756355 4.7063,0.133813 14.0929,5.637185 22.3484,13.102895 8.0623,7.29108 14.5072,15.76151 17.7735,23.35972 0.6431,1.496 1.2979,2.72 1.4551,2.72 0.1571,0 0.1346,-1.6665 -0.05,-3.70334 z"
         id="path74" />
      <path
         style="fill:#fefefd;fill-opacity:1;stroke:none;stroke-opacity:1"
         d="m 404.2599,123.10122 c 7.204,-10.16292 17.2233,-19.04876 26.3432,-23.363169 7.0062,-3.314412 10.8117,-2.312064 13.1914,3.474489 1.1043,2.68527 2.1455,3.76284 2.1455,2.22048 0,-4.22325 -4.3994,-17.008906 -6.2257,-18.093284 -1.2973,-0.770284 -19.9171,11.491482 -26.5171,17.462424 -9.4251,8.52669 -17.1772,21.73107 -17.1772,29.2583 v 2.95244 l 2.3199,-4.41645 c 1.2759,-2.42905 3.9399,-6.7019 5.92,-9.49523 z"
         id="path75" />
      <path
         style="fill:#fefefd;fill-opacity:1;stroke:none;stroke-opacity:1"
         d="m 426.6634,310.68164 c -5.9891,12.91253 -15.4025,27.85335 -28.9687,35.13281 -24.7897,13.30178 -48.1721,23.49045 -72.2442,4.36524 -0.1211,-1.28472 -0.1168,-2.88564 -0.047,-5.38086 l 0.1836,-6.52344 3.1993,-1.19531 c 4.0902,-1.52792 10.4576,-6.67937 12.9999,-10.51758 2.0519,-3.09777 4.7113,-9.52198 5.8887,-14.22266 0.4129,-1.64843 1.0503,-2.7207 1.6172,-2.7207 0.5144,0 0.9355,0.24355 0.9355,0.53906 0,1.1945 8.3232,6.88923 13.7422,9.40235 8.9023,4.12852 13.6893,5.10211 24.9766,5.08203 7.8993,-0.0141 10.4583,-0.26202 14.4414,-1.4043 5.354,-1.53542 14.2683,-5.63583 18.1445,-8.3457 1.7099,-1.19537 3.4336,-2.64803 5.1309,-4.21094 z"
         id="path134" />
      <path
         style="fill:#fefefd;fill-opacity:1;stroke:none;stroke-opacity:1"
         d="m 215.26367,310.68164 c 5.98908,12.91253 15.40249,27.85335 28.96875,35.13281 24.78968,13.30178 48.172,23.49045 72.24418,4.36524 0.1211,-1.28472 0.1168,-2.88564 0.047,-5.38086 l -0.1836,-6.52344 -3.1993,-1.19531 c -4.0902,-1.52792 -10.4576,-6.67937 -12.99996,-10.51758 -2.05189,-3.09777 -4.71127,-9.52198 -5.88867,-14.22266 -0.4129,-1.64843 -1.05028,-2.7207 -1.61718,-2.7207 -0.5144,0 -0.93555,0.24355 -0.93555,0.53906 0,1.1945 -8.32319,6.88923 -13.74219,9.40235 -8.90229,4.12852 -13.68927,5.10211 -24.97656,5.08203 -7.89929,-0.0141 -10.45831,-0.26202 -14.44141,-1.4043 -5.35399,-1.53542 -14.26833,-5.63583 -18.14453,-8.3457 -1.70985,-1.19537 -3.43355,-2.64803 -5.13086,-4.21094 z"
         id="path133" />
      <path
         style="fill:#fefefd;fill-opacity:1;stroke:none;stroke-opacity:1"
         d="m 412.4803,240.04297 c 6.0506,9.33564 11.8361,21.36102 9.5938,30.96484 -3.8971,16.69115 -18.6548,30.25041 -32.9824,31.74024 v 0 c 4.3653,1.02342 14.2411,-1.37778 26.6406,-10.4336 7.1832,-5.24619 12.0574,-13.99773 15.4062,-21.98828 -0.1448,1.48709 -0.3378,2.92923 -0.5976,4.28711 -1.0547,5.51244 -4.7344,14.8107 -7.3711,18.62695 -4.4591,6.45381 -13.8529,13.5646 -21.2403,16.07813 -7.1061,2.41786 -18.4827,2.5982 -26.2714,0.41601 -8.7703,-2.45718 -17.6562,-9.33356 -21.9239,-16.96484 -2.732,-4.88528 -2.5389,-6.30038 0.541,-3.95117 0.989,0.75435 1.6668,1.21622 2.0879,1.40234 4.1909,3.96286 10.7766,8.35164 12.9336,6.22266 1.3411,-1.32366 2.206,-3.00213 2.7793,-4.5 2.2706,0.54411 4.8423,0.69029 8.8203,0.69922 8.4813,0.019 12.3014,-0.9728 17.8125,-4.63086 6.9417,-4.60763 10.7768,-11.64365 11.4356,-20.97852 0.6156,-8.7232 -1.3116,-15.04192 -7.1016,-23.28125 -1.0195,-1.45081 -1.6773,-2.81479 -1.4609,-3.03125 0.3536,-0.35354 5.563,-0.60475 10.8984,-0.67773 z"
         id="path185" />
      <path
         style="fill:#fefefd;fill-opacity:1;stroke:none;stroke-opacity:1"
         d="m 228.75586,240.04297 c -6.05062,9.33564 -11.83605,21.36102 -9.59375,30.96484 3.89705,16.69115 18.65478,30.25041 32.98242,31.74024 v 0 c -4.3653,1.02342 -14.24112,-1.37778 -26.64062,-10.4336 -7.18327,-5.24619 -12.05739,-13.99773 -15.40625,-21.98828 0.1448,1.48709 0.33784,2.92923 0.59765,4.28711 1.0547,5.51244 4.7344,14.8107 7.3711,18.62695 4.45908,6.45381 13.85285,13.5646 21.24023,16.07813 7.10618,2.41786 18.4827,2.5982 26.27148,0.41601 8.7703,-2.45718 17.65615,-9.33356 21.92383,-16.96484 2.732,-4.88528 2.53897,-6.30038 -0.54101,-3.95117 -0.989,0.75435 -1.66679,1.21622 -2.08789,1.40234 -4.19086,3.96286 -10.77659,8.35164 -12.9336,6.22266 -1.34107,-1.32366 -2.20599,-3.00213 -2.77929,-4.5 -2.27062,0.54411 -4.84223,0.69029 -8.82032,0.69922 -8.48128,0.019 -12.3014,-0.9728 -17.8125,-4.63086 -6.94168,-4.60763 -10.77674,-11.64365 -11.43554,-20.97852 -0.6156,-8.7232 1.31158,-15.04192 7.10156,-23.28125 1.0195,-1.45081 1.67734,-2.81479 1.46094,-3.03125 -0.35357,-0.35354 -5.56305,-0.60475 -10.89844,-0.67773 z"
         id="path213" />
      <path
         id="path260"
         style="fill:#fefefd;fill-opacity:1;stroke:none;stroke-opacity:1"
         d="m 438.0439,515.86001 c -0.057,-0.74038 -9.4296,-7.17922 -13.6658,-9.38789 L 420.5957,504.5 409.1278,504.4188 c -12.42,-0.0879 -12.9153,0.0552 -11.2607,3.25331 l 0.8535,1.64987 10.24,0.21928 c 10.9953,0.23545 13.5123,0.76478 23.04,4.84537 4.5625,1.95406 6.1089,2.33107 6.0433,1.47335 z m 9.53,-0.13074 c -0.1173,-0.33591 -1.5948,-1.59097 -3.2833,-2.78901 l -3.0699,-2.17827 4.6699,-0.44356 c 6.0172,-0.57152 14.0285,-2.43461 14.0112,-3.25842 -0.01,-0.352 -1.2482,-0.83276 -2.7573,-1.06836 -5.2279,-0.81615 -19.4517,-1.35063 -23.249,-0.87361 l -3.8149,0.47922 2.868,2.54971 c 1.5775,1.40234 5.4655,3.81026 8.64,5.35095 6.4665,3.13831 6.2775,3.06784 5.9853,2.23135 z" />
    </g>
  </g>
</svg>
